<svg width="357" height="357" viewBox="0 0 357 357" fill="none" xmlns="http://www.w3.org/2000/svg">
<path d="M314.668 188.322C316.095 169.357 311.68 149.547 305.769 131.892C296.989 105.666 279.944 78.7728 251.241 72.5653C234.688 68.9853 217.845 72.8216 203.656 81.7894C190.008 90.4153 179.364 101.557 162.591 103.716C145.62 105.9 128.207 105.02 111.146 105.02C67.2867 105.02 31.6916 151.097 40.5902 199.095C49.4888 247.091 91.4406 280.369 127.037 280.369C159.023 280.369 185.338 261.178 215.719 256.027C230.785 253.472 245.914 256.495 260.821 252.667C278.15 248.218 294.446 237.596 304.046 222.222C310.589 211.744 313.774 200.198 314.668 188.322Z" fill="#006850"/>
<path opacity="0.7" d="M314.668 188.322C316.095 169.357 311.68 149.547 305.769 131.892C296.989 105.666 279.944 78.7728 251.241 72.5653C234.688 68.9853 217.845 72.8216 203.656 81.7894C190.008 90.4153 179.364 101.557 162.591 103.716C145.62 105.9 128.207 105.02 111.146 105.02C67.2867 105.02 31.6916 151.097 40.5902 199.095C49.4888 247.091 91.4406 280.369 127.037 280.369C159.023 280.369 185.338 261.178 215.719 256.027C230.785 253.472 245.914 256.495 260.821 252.667C278.15 248.218 294.446 237.596 304.046 222.222C310.589 211.744 313.774 200.198 314.668 188.322Z" fill="white"/>
<path d="M309.535 181.664C309.535 181.664 309.535 178.113 304.563 173.142C299.592 168.17 296.396 165.329 296.396 165.329C296.396 165.329 293.91 173.497 298.527 178.468C303.143 183.44 309.535 188.057 309.535 188.057V181.664Z" fill="#006850"/>
<path d="M302.32 203.841C302.32 203.841 302.32 200.291 297.348 195.319C292.377 190.347 289.181 187.506 289.181 187.506C289.181 187.506 286.695 195.674 291.311 200.645C295.928 205.617 302.32 210.234 302.32 210.234V203.841Z" fill="#006850"/>
<path d="M309.223 187.713C309.223 187.713 309.597 184.181 315.067 179.763C320.536 175.345 324.014 172.857 324.014 172.857C324.014 172.857 325.622 181.242 320.507 185.698C315.391 190.154 308.546 194.069 308.546 194.069L309.223 187.713Z" fill="#006850"/>
<path d="M300.506 213.904C300.506 213.904 301.25 210.432 307.154 206.612C313.056 202.792 316.777 200.684 316.777 200.684C316.777 200.684 317.496 209.191 311.94 213.085C306.385 216.979 299.167 220.153 299.167 220.153L300.506 213.904Z" fill="#006850"/>
<path d="M302.145 242.46C302.145 242.46 302.145 238.909 307.117 233.937C312.088 228.966 315.284 226.125 315.284 226.125C315.284 226.125 317.77 234.292 313.153 239.264C308.537 244.235 302.145 248.852 302.145 248.852V242.46Z" fill="#006850"/>
<path d="M302.062 249.43C302.062 249.43 302.567 245.915 298.352 240.287C294.137 234.66 291.378 231.394 291.378 231.394C291.378 231.394 287.756 239.125 291.62 244.702C295.482 250.279 301.154 255.757 301.154 255.757L302.062 249.43Z" fill="#006850"/>
<path d="M297.16 270.087C297.16 270.087 297.16 266.536 302.131 261.565C307.103 256.593 310.299 253.752 310.299 253.752C310.299 253.752 312.785 261.92 308.168 266.891C303.551 271.863 297.16 276.48 297.16 276.48V270.087Z" fill="#006850"/>
<path d="M300.48 288.816C300.48 288.816 299.58 285.381 303.131 279.312C306.681 273.243 309.053 269.686 309.053 269.686C309.053 269.686 313.527 276.957 310.32 282.936C307.113 288.915 302.099 295 302.099 295L300.48 288.816Z" fill="#006850"/>
<path d="M309.986 180.754C309.695 184.55 309.263 188.477 308.624 191.78C306.659 201.934 301.746 208.485 299.781 217.656C297.815 226.827 303.457 238.642 301.946 250.422C300.435 262.201 295.85 268.752 297.16 276.613C298.471 284.474 305.349 305.764 305.349 305.764" stroke="#263238" stroke-width="0.714" stroke-miterlimit="10" stroke-linecap="round" stroke-linejoin="round"/>
<path d="M309.173 190.073L314.531 185.961" stroke="#263238" stroke-width="0.714" stroke-miterlimit="10" stroke-linecap="round" stroke-linejoin="round"/>
<path d="M309.422 185.338L307.18 181.351" stroke="#263238" stroke-width="0.714" stroke-miterlimit="10" stroke-linecap="round" stroke-linejoin="round"/>
<path d="M300.078 217.234C300.078 217.234 304.563 213.87 309.173 210.506" stroke="#263238" stroke-width="0.714" stroke-miterlimit="10" stroke-linecap="round" stroke-linejoin="round"/>
<path d="M302.32 210.234C302.32 210.234 298.583 202.906 294.347 198.047" stroke="#263238" stroke-width="0.714" stroke-miterlimit="10" stroke-linecap="round" stroke-linejoin="round"/>
<path d="M302.321 247.511C302.321 247.511 305.809 240.658 311.915 234.678" stroke="#263238" stroke-width="0.714" stroke-miterlimit="10" stroke-linecap="round" stroke-linejoin="round"/>
<path d="M301.449 252.496C301.449 252.496 299.206 247.138 296.589 243.276C293.973 239.413 293.599 238.915 293.599 238.915" stroke="#263238" stroke-width="0.714" stroke-miterlimit="10" stroke-linecap="round" stroke-linejoin="round"/>
<path d="M297.16 276.613C297.16 276.613 298.956 272.057 301.199 268.444C303.442 264.83 306.432 261.591 306.432 261.591" stroke="#263238" stroke-width="0.714" stroke-miterlimit="10" stroke-linecap="round" stroke-linejoin="round"/>
<path d="M302.098 294.999C302.098 294.999 301.573 290.746 303.442 287.134C305.311 283.52 307.429 278.786 308.302 276.917" stroke="#263238" stroke-width="0.714" stroke-miterlimit="10" stroke-linecap="round" stroke-linejoin="round"/>
<path d="M268.965 229.105C268.965 229.105 268.579 226.878 271.157 223.221C273.735 219.563 275.43 217.435 275.43 217.435C275.43 217.435 277.876 222.287 275.52 225.905C273.165 229.524 269.657 233.113 269.657 233.113L268.965 229.105Z" fill="#006850"/>
<path d="M275.896 242.229C275.896 242.229 275.51 240.002 278.089 236.345C280.666 232.688 282.362 230.559 282.362 230.559C282.362 230.559 284.807 235.411 282.452 239.029C280.096 242.648 276.589 246.237 276.589 246.237L275.896 242.229Z" fill="#006850"/>
<path d="M269.817 232.864C269.817 232.864 269.199 230.691 265.29 228.514C261.381 226.337 258.929 225.154 258.929 225.154C258.929 225.154 258.831 230.586 262.522 232.826C266.214 235.065 270.931 236.777 270.931 236.777L269.817 232.864Z" fill="#006850"/>
<path d="M278.126 248.341C278.126 248.341 277.282 246.245 273.165 244.491C269.049 242.736 266.487 241.818 266.487 241.818C266.487 241.818 266.96 247.231 270.866 249.07C274.773 250.908 279.643 252.115 279.643 252.115L278.126 248.341Z" fill="#006850"/>
<path d="M280.198 266.426C280.198 266.426 279.813 264.199 276.156 261.622C272.499 259.044 270.186 257.609 270.186 257.609C270.186 257.609 269.514 263.001 272.948 265.617C276.383 268.233 280.892 270.435 280.892 270.435L280.198 266.426Z" fill="#006850"/>
<path d="M281.007 270.788C281.007 270.788 280.309 268.639 282.341 264.652C284.373 260.666 285.749 258.317 285.749 258.317C285.749 258.317 288.859 262.773 287.042 266.689C285.225 270.606 282.263 274.657 282.263 274.657L281.007 270.788Z" fill="#006850"/>
<path d="M287.247 288.751C287.247 288.751 287.505 286.505 291.009 283.724C294.514 280.941 296.741 279.377 296.741 279.377C296.741 279.377 297.72 284.721 294.439 287.529C291.16 290.337 286.783 292.792 286.783 292.792L287.247 288.751Z" fill="#006850"/>
<path d="M286.324 283.21C286.324 283.21 285.938 280.983 282.281 278.405C278.624 275.827 276.311 274.392 276.311 274.392C276.311 274.392 275.64 279.784 279.074 282.401C282.508 285.017 287.018 287.218 287.018 287.218L286.324 283.21Z" fill="#006850"/>
<path d="M286.275 295.314C286.275 295.314 286.467 293.062 283.581 289.642C280.696 286.222 278.822 284.249 278.822 284.249C278.822 284.249 276.807 289.294 279.467 292.695C282.126 296.096 285.932 299.367 285.932 299.367L286.275 295.314Z" fill="#006850"/>
<path d="M268.583 228.583C269.178 230.931 269.875 233.348 270.634 235.35C272.969 241.504 276.761 245.078 278.989 250.616C281.216 256.153 278.961 264.175 281.188 271.397C283.414 278.62 287 282.23 287.033 287.302C287.065 292.373 285.063 306.47 285.063 306.47" stroke="#263238" stroke-width="0.714" stroke-miterlimit="10" stroke-linecap="round" stroke-linejoin="round"/>
<path d="M270.104 234.338L266.298 232.341" stroke="#263238" stroke-width="0.714" stroke-miterlimit="10" stroke-linecap="round" stroke-linejoin="round"/>
<path d="M269.434 231.397L270.407 228.653" stroke="#263238" stroke-width="0.714" stroke-miterlimit="10" stroke-linecap="round" stroke-linejoin="round"/>
<path d="M278.756 250.384C278.756 250.384 275.578 248.761 272.322 247.153" stroke="#263238" stroke-width="0.714" stroke-miterlimit="10" stroke-linecap="round" stroke-linejoin="round"/>
<path d="M276.59 246.237C276.59 246.237 278.138 241.236 280.267 237.729" stroke="#263238" stroke-width="0.714" stroke-miterlimit="10" stroke-linecap="round" stroke-linejoin="round"/>
<path d="M280.636 269.613C280.636 269.613 277.705 265.695 273.227 262.607" stroke="#263238" stroke-width="0.714" stroke-miterlimit="10" stroke-linecap="round" stroke-linejoin="round"/>
<path d="M281.725 272.644C281.725 272.644 282.549 269.041 283.771 266.334C284.993 263.628 285.173 263.275 285.173 263.275" stroke="#263238" stroke-width="0.714" stroke-miterlimit="10" stroke-linecap="round" stroke-linejoin="round"/>
<path d="M286.859 291.149C286.859 291.149 289.382 288.057 290.952 286.9C292.522 285.743 293.61 284.588 293.61 284.588" stroke="#263238" stroke-width="0.714" stroke-miterlimit="10" stroke-linecap="round" stroke-linejoin="round"/>
<path d="M287.033 287.302C287.033 287.302 285.411 284.64 283.612 282.618C281.814 280.596 279.587 278.889 279.587 278.889" stroke="#263238" stroke-width="0.714" stroke-miterlimit="10" stroke-linecap="round" stroke-linejoin="round"/>
<path d="M285.931 299.368C285.931 299.368 285.799 296.644 284.235 294.581C282.67 292.519 280.828 289.779 280.079 288.702" stroke="#263238" stroke-width="0.714" stroke-miterlimit="10" stroke-linecap="round" stroke-linejoin="round"/>
<path d="M66.1688 198.006L63.0415 189.071L66.1688 192.868L63.712 179.465L67.509 189.071L68.8499 170.306L71.084 188.177L73.5409 184.603V189.071L76.4454 183.039L74.8811 193.539L77.5621 191.752L73.3174 197.56L66.1688 198.006Z" fill="#006850"/>
<path d="M75.9981 195.773H64.3813L66.4727 219.229H73.9068L75.9981 195.773Z" fill="#263238" stroke="#263238" stroke-width="0.714" stroke-miterlimit="10" stroke-linecap="round" stroke-linejoin="round"/>
<path d="M97.7839 218.959H58.2104V302.78H97.7839V218.959Z" fill="white" stroke="#263238" stroke-width="0.714" stroke-miterlimit="10" stroke-linecap="round" stroke-linejoin="round"/>
<path d="M99.9531 218.959H77.9976V302.78H99.9531V218.959Z" fill="white" stroke="#263238" stroke-width="0.714" stroke-miterlimit="10" stroke-linecap="round" stroke-linejoin="round"/>
<path d="M97.479 218.959H77.9976V302.78H97.479V218.959Z" fill="#263238" stroke="#263238" stroke-width="0.714" stroke-miterlimit="10" stroke-linecap="round" stroke-linejoin="round"/>
<path d="M95.2914 283.297H77.9976V300.463H95.2914V283.297Z" fill="#006850" stroke="#263238" stroke-width="0.714" stroke-miterlimit="10" stroke-linecap="round" stroke-linejoin="round"/>
<path d="M95.2914 284.225H77.9976V286.425H95.2914V284.225Z" fill="white" stroke="#263238" stroke-width="0.714" stroke-miterlimit="10" stroke-linecap="round" stroke-linejoin="round"/>
<path d="M95.2914 296.86H77.9976V299.061H95.2914V296.86Z" fill="white" stroke="#263238" stroke-width="0.714" stroke-miterlimit="10" stroke-linecap="round" stroke-linejoin="round"/>
<path d="M81.2778 283.651V305.356" stroke="#263238" stroke-width="0.714" stroke-miterlimit="10" stroke-linecap="round" stroke-linejoin="round"/>
<path d="M87.3081 283.651V305.356" stroke="#263238" stroke-width="0.714" stroke-miterlimit="10" stroke-linecap="round" stroke-linejoin="round"/>
<path d="M92.6035 283.651V305.356" stroke="#263238" stroke-width="0.714" stroke-miterlimit="10" stroke-linecap="round" stroke-linejoin="round"/>
<path d="M95.2914 222.074H77.9976V247.314H95.2914V222.074Z" fill="#006850" stroke="#263238" stroke-width="0.714" stroke-miterlimit="10" stroke-linecap="round" stroke-linejoin="round"/>
<path d="M95.2914 223.129H77.9976V225.63H95.2914V223.129Z" fill="white" stroke="#263238" stroke-width="0.714" stroke-miterlimit="10" stroke-linecap="round" stroke-linejoin="round"/>
<path d="M95.2914 239.309H77.9976V241.81H95.2914V239.309Z" fill="white" stroke="#263238" stroke-width="0.714" stroke-miterlimit="10" stroke-linecap="round" stroke-linejoin="round"/>
<path d="M81.2778 222.476V247.14" stroke="#263238" stroke-width="0.714" stroke-miterlimit="10" stroke-linecap="round" stroke-linejoin="round"/>
<path d="M87.3081 222.476V247.14" stroke="#263238" stroke-width="0.714" stroke-miterlimit="10" stroke-linecap="round" stroke-linejoin="round"/>
<path d="M92.6035 222.476V247.14" stroke="#263238" stroke-width="0.714" stroke-miterlimit="10" stroke-linecap="round" stroke-linejoin="round"/>
<path d="M95.2914 252.495H77.9976V277.735H95.2914V252.495Z" fill="#006850" stroke="#263238" stroke-width="0.714" stroke-miterlimit="10" stroke-linecap="round" stroke-linejoin="round"/>
<path d="M95.2914 253.549H77.9976V256.05H95.2914V253.549Z" fill="white" stroke="#263238" stroke-width="0.714" stroke-miterlimit="10" stroke-linecap="round" stroke-linejoin="round"/>
<path d="M95.2914 269.729H77.9976V272.229H95.2914V269.729Z" fill="white" stroke="#263238" stroke-width="0.714" stroke-miterlimit="10" stroke-linecap="round" stroke-linejoin="round"/>
<path d="M81.2778 252.896V277.56" stroke="#263238" stroke-width="0.714" stroke-miterlimit="10" stroke-linecap="round" stroke-linejoin="round"/>
<path d="M87.3081 252.896V277.56" stroke="#263238" stroke-width="0.714" stroke-miterlimit="10" stroke-linecap="round" stroke-linejoin="round"/>
<path d="M92.6035 252.896V277.56" stroke="#263238" stroke-width="0.714" stroke-miterlimit="10" stroke-linecap="round" stroke-linejoin="round"/>
<path d="M97.7846 246.966H77.9976V249.836H97.7846V246.966Z" fill="white" stroke="#263238" stroke-width="0.714" stroke-miterlimit="10" stroke-linecap="round" stroke-linejoin="round"/>
<path d="M97.7846 277.577H77.9976V280.446H97.7846V277.577Z" fill="white" stroke="#263238" stroke-width="0.714" stroke-miterlimit="10" stroke-linecap="round" stroke-linejoin="round"/>
<path d="M97.7842 218.959V302.78" stroke="#263238" stroke-width="0.714" stroke-miterlimit="10" stroke-linecap="round" stroke-linejoin="round"/>
<path d="M75.2085 218.959V302.78H77.9974V222.075H97.4417V218.928L75.2085 218.959Z" fill="white" stroke="#263238" stroke-width="0.714" stroke-miterlimit="10" stroke-linecap="round" stroke-linejoin="round"/>
<path d="M77.9976 222.075V218.959" stroke="#263238" stroke-width="0.714" stroke-miterlimit="10" stroke-linecap="round" stroke-linejoin="round"/>
<path d="M97.6345 180.454C95.5532 176.453 94.6807 173.578 94.6807 172.915C94.6807 171.606 97.5624 170.82 97.5624 170.82C102.016 168.462 122.973 171.868 132.403 173.439C141.834 175.011 148.383 175.011 148.383 175.011C148.383 175.011 149.694 173.963 151.265 172.653C152.837 171.344 160.172 162.699 163.053 161.912C165.935 161.126 168.555 162.961 168.555 162.961C168.555 162.961 173.27 165.842 172.484 166.366C171.698 166.89 160.172 176.845 157.29 178.679C154.408 180.512 148.383 179.727 143.144 180.774C138.634 181.676 120.353 182.79 116.162 183.132C116.162 183.132 111.971 184.441 106.732 182.346" fill="white"/>
<mask id="mask0_49_7865" style="mask-type:luminance" maskUnits="userSpaceOnUse" x="94" y="161" width="79" height="23">
<path d="M97.6345 180.454C95.5532 176.453 94.6807 173.578 94.6807 172.915C94.6807 171.606 97.5624 170.82 97.5624 170.82C102.016 168.462 122.973 171.868 132.403 173.439C141.834 175.011 148.383 175.011 148.383 175.011C148.383 175.011 149.694 173.963 151.265 172.653C152.837 171.344 160.172 162.699 163.053 161.912C165.935 161.126 168.555 162.961 168.555 162.961C168.555 162.961 173.27 165.842 172.484 166.366C171.698 166.89 160.172 176.845 157.29 178.679C154.408 180.512 148.383 179.727 143.144 180.774C138.634 181.676 120.353 182.79 116.162 183.132C116.162 183.132 111.971 184.441 106.732 182.346" fill="white"/>
</mask>
<g mask="url(#mask0_49_7865)">
<path d="M168.555 162.961C168.555 162.961 165.935 161.127 163.053 161.913C160.172 162.699 152.837 171.343 151.265 172.654C149.694 173.963 148.383 175.011 148.383 175.011C148.383 175.011 141.835 175.011 132.403 173.44C122.973 171.868 102.016 168.462 97.5624 170.82C97.5624 170.82 94.6807 171.606 94.6807 172.916C94.6807 173.216 94.862 173.973 95.2511 175.08C95.4989 175.169 95.6424 175.22 95.6424 175.22C95.6424 175.22 100.876 174.669 112.169 174.945C123.463 175.22 149.593 176.763 151.264 177.369C152.019 177.642 157.043 176.497 162.653 174.528C166.917 171.037 171.972 166.707 172.483 166.366C173.27 165.843 168.555 162.961 168.555 162.961Z" fill="#006850"/>
</g>
<mask id="mask1_49_7865" style="mask-type:luminance" maskUnits="userSpaceOnUse" x="94" y="161" width="79" height="23">
<path d="M97.6345 180.454C95.5532 176.453 94.6807 173.578 94.6807 172.915C94.6807 171.606 97.5624 170.82 97.5624 170.82C102.016 168.462 122.973 171.868 132.403 173.439C141.834 175.011 148.383 175.011 148.383 175.011C148.383 175.011 149.694 173.963 151.265 172.653C152.837 171.344 160.172 162.699 163.053 161.912C165.935 161.126 168.555 162.961 168.555 162.961C168.555 162.961 173.27 165.842 172.484 166.366C171.698 166.89 160.172 176.845 157.29 178.679C154.408 180.512 148.383 179.727 143.144 180.774C138.634 181.676 120.353 182.79 116.162 183.132C116.162 183.132 111.971 184.441 106.732 182.346" fill="white"/>
</mask>
<g mask="url(#mask1_49_7865)">
<path opacity="0.5" d="M168.555 162.961C168.555 162.961 165.935 161.127 163.053 161.913C160.172 162.699 152.837 171.343 151.265 172.654C149.694 173.963 148.383 175.011 148.383 175.011C148.383 175.011 141.835 175.011 132.403 173.44C122.973 171.868 102.016 168.462 97.5624 170.82C97.5624 170.82 94.6807 171.606 94.6807 172.916C94.6807 173.216 94.862 173.973 95.2511 175.08C95.4989 175.169 95.6424 175.22 95.6424 175.22C95.6424 175.22 100.876 174.669 112.169 174.945C123.463 175.22 149.593 176.763 151.264 177.369C152.019 177.642 157.043 176.497 162.653 174.528C166.917 171.037 171.972 166.707 172.483 166.366C173.27 165.843 168.555 162.961 168.555 162.961Z" fill="white"/>
</g>
<path d="M97.6345 180.454C95.5532 176.453 94.6807 173.578 94.6807 172.915C94.6807 171.606 97.5624 170.82 97.5624 170.82C102.016 168.462 122.973 171.868 132.403 173.439C141.834 175.011 148.383 175.011 148.383 175.011C148.383 175.011 149.694 173.963 151.265 172.653C152.837 171.344 160.172 162.699 163.053 161.912C165.935 161.126 168.555 162.961 168.555 162.961C168.555 162.961 173.27 165.842 172.484 166.366C171.698 166.89 160.172 176.845 157.29 178.679C154.408 180.512 148.383 179.727 143.144 180.774C138.634 181.676 120.353 182.79 116.162 183.132C116.162 183.132 111.971 184.441 106.732 182.346" stroke="#263238" stroke-width="0.714" stroke-miterlimit="10" stroke-linecap="round" stroke-linejoin="round"/>
<path d="M201.099 203.744C202.06 201.909 203.967 200.768 206.038 200.768H253.664C253.664 200.768 257.107 200.768 256.074 207.309C255.041 213.849 240.926 253.783 237.483 265.833C234.041 277.882 233.352 303.357 233.352 303.357H176.205C176.206 303.358 180.784 242.527 201.099 203.744Z" fill="white"/>
<mask id="mask2_49_7865" style="mask-type:luminance" maskUnits="userSpaceOnUse" x="176" y="200" width="81" height="104">
<path d="M201.099 203.744C202.06 201.909 203.967 200.768 206.038 200.768H253.664C253.664 200.768 257.107 200.768 256.074 207.309C255.041 213.849 240.926 253.783 237.483 265.833C234.041 277.882 233.352 303.357 233.352 303.357H176.205C176.206 303.358 180.784 242.527 201.099 203.744Z" fill="white"/>
</mask>
<g mask="url(#mask2_49_7865)">
<path opacity="0.16" d="M222.55 200.768H206.038C203.967 200.768 202.06 201.909 201.099 203.744C180.785 242.527 176.206 303.358 176.206 303.358H201.829L208.145 279.361L234.493 284.794C234.68 282.781 234.895 280.732 235.141 278.714L234.567 272.259C234.567 272.259 229.169 266.577 227.464 265.156C225.76 263.735 226.896 261.178 226.612 250.098C226.327 239.017 216.384 231.062 212.69 224.243C208.997 217.425 214.679 213.163 219.793 206.344C221.615 203.913 222.352 202.1 222.55 200.768Z" fill="black"/>
</g>
<path d="M201.099 203.744C202.06 201.909 203.967 200.768 206.038 200.768H253.664C253.664 200.768 257.107 200.768 256.074 207.309C255.041 213.849 240.926 253.783 237.483 265.833C234.041 277.882 233.352 303.357 233.352 303.357H176.205C176.206 303.358 180.784 242.527 201.099 203.744Z" stroke="#263238" stroke-width="0.714" stroke-miterlimit="10" stroke-linecap="round" stroke-linejoin="round"/>
<path d="M245.402 212.129C240.587 223.364 230.386 267.819 228.75 303.358H233.352C233.352 303.358 234.041 277.882 237.484 265.834C240.927 253.784 255.041 213.85 256.074 207.309C257.107 200.768 253.664 200.768 253.664 200.768C253.664 200.768 249.262 203.123 245.402 212.129Z" fill="#263238" stroke="#263238" stroke-width="0.714" stroke-miterlimit="10" stroke-linecap="round" stroke-linejoin="round"/>
<path d="M161.744 189.681C161.744 189.681 154.147 185.228 151.265 177.369C148.383 169.51 173.794 156.936 184.797 156.15C195.8 155.364 198.943 158.245 205.492 169.51C212.041 180.775 216.495 196.231 213.089 203.828C209.683 211.425 203.921 213.258 208.112 219.546C212.303 225.833 224.092 243.647 223.306 252.029C222.52 260.412 214.399 267.747 202.61 268.533C190.822 269.319 175.104 262.246 162.006 250.72C148.908 239.194 152.313 222.165 157.029 216.664C161.744 211.163 168.817 209.067 169.341 203.566C169.864 198.064 161.744 189.681 161.744 189.681Z" fill="#263238" stroke="#263238" stroke-width="0.714" stroke-miterlimit="10" stroke-linecap="round" stroke-linejoin="round"/>
<path d="M194.119 177.25C198.157 184.761 203.203 194.822 204.778 200.899C207.537 211.536 193.353 218.234 197.293 223.355" stroke="white" stroke-width="0.714" stroke-miterlimit="10" stroke-linecap="round" stroke-linejoin="round"/>
<path d="M188.626 167.41C188.626 167.41 190.195 170.086 192.369 174.033" stroke="white" stroke-width="0.714" stroke-miterlimit="10" stroke-linecap="round" stroke-linejoin="round"/>
<path d="M209.787 186.31C210.249 187.743 210.564 189.197 210.689 190.655" stroke="white" stroke-width="0.714" stroke-miterlimit="10" stroke-linecap="round" stroke-linejoin="round"/>
<path d="M191.384 163.47C191.384 163.47 203.789 172.639 208.742 183.614" stroke="white" stroke-width="0.714" stroke-miterlimit="10" stroke-linecap="round" stroke-linejoin="round"/>
<path d="M174.128 170.379C165.266 172.869 152.526 176.9 153.562 179.23" stroke="white" stroke-width="0.714" stroke-miterlimit="10" stroke-linecap="round" stroke-linejoin="round"/>
<path d="M182.322 168.198C182.322 168.198 180.426 168.665 177.607 169.423" stroke="white" stroke-width="0.714" stroke-miterlimit="10" stroke-linecap="round" stroke-linejoin="round"/>
<path d="M171.354 163.574C174.607 162.501 179.967 161.272 187.05 161.5" stroke="white" stroke-width="0.714" stroke-miterlimit="10" stroke-linecap="round" stroke-linejoin="round"/>
<path d="M167.745 165.046C167.745 165.046 168.602 164.57 170.233 163.965" stroke="white" stroke-width="0.714" stroke-miterlimit="10" stroke-linecap="round" stroke-linejoin="round"/>
<path d="M94.6807 172.916C94.6807 172.957 94.6842 173.007 94.6907 173.065C94.6842 173.007 94.6807 172.957 94.6807 172.916ZM97.6345 180.453C95.9452 177.205 95.0519 174.699 94.7756 173.518C95.0512 174.699 95.9444 177.205 97.6345 180.453ZM94.6971 173.106C94.7035 173.155 94.7107 173.205 94.7221 173.264C94.7107 173.206 94.7042 173.156 94.6971 173.106ZM94.7314 173.308C94.7435 173.373 94.7578 173.439 94.7749 173.514C94.7571 173.439 94.7435 173.373 94.7314 173.308ZM97.6345 180.453C99.6679 184.363 102.855 189.347 107.516 194.396C116.947 204.613 144.192 231.334 146.811 233.167C149.431 235.001 148.645 240.24 146.811 245.48C144.978 250.719 138.166 258.316 138.428 266.699C138.69 275.082 141.31 287.918 141.048 290.538C140.786 293.158 134.237 302.064 134.237 302.064H201.824C201.824 302.064 193.405 291.363 193.405 287.696C193.405 284.028 204.968 237.097 205.492 233.691C206.016 230.286 203.921 227.928 199.729 227.666C195.537 227.404 179.557 223.998 178.771 221.379C177.985 218.759 182.962 208.804 182.962 208.804L167.244 209.59C167.244 209.59 166.458 216.401 165.411 217.711C164.363 219.022 162.791 216.401 159.124 214.568C155.456 212.734 148.383 211.162 145.764 209.066C143.144 206.971 117.996 183.394 117.996 183.394" fill="white"/>
<mask id="mask3_49_7865" style="mask-type:luminance" maskUnits="userSpaceOnUse" x="94" y="172" width="112" height="131">
<path d="M94.6807 172.916C94.6807 172.957 94.6842 173.007 94.6907 173.065C94.6842 173.007 94.6807 172.957 94.6807 172.916ZM97.6345 180.453C95.9452 177.205 95.0519 174.699 94.7756 173.518C95.0512 174.699 95.9444 177.205 97.6345 180.453ZM94.6971 173.106C94.7035 173.155 94.7107 173.205 94.7221 173.264C94.7107 173.206 94.7042 173.156 94.6971 173.106ZM94.7314 173.308C94.7435 173.373 94.7578 173.439 94.7749 173.514C94.7571 173.439 94.7435 173.373 94.7314 173.308ZM97.6345 180.453C99.6679 184.363 102.855 189.347 107.516 194.396C116.947 204.613 144.192 231.334 146.811 233.167C149.431 235.001 148.645 240.24 146.811 245.48C144.978 250.719 138.166 258.316 138.428 266.699C138.69 275.082 141.31 287.918 141.048 290.538C140.786 293.158 134.237 302.064 134.237 302.064H201.824C201.824 302.064 193.405 291.363 193.405 287.696C193.405 284.028 204.968 237.097 205.492 233.691C206.016 230.286 203.921 227.928 199.729 227.666C195.537 227.404 179.557 223.998 178.771 221.379C177.985 218.759 182.962 208.804 182.962 208.804L167.244 209.59C167.244 209.59 166.458 216.401 165.411 217.711C164.363 219.022 162.791 216.401 159.124 214.568C155.456 212.734 148.383 211.162 145.764 209.066C143.144 206.971 117.996 183.394 117.996 183.394" fill="white"/>
</mask>
<g mask="url(#mask3_49_7865)">
<path d="M149.773 211.09C151.084 213.374 152.386 215.436 152.386 215.436C152.386 215.436 156.793 217.915 157.895 217.915C158.997 217.915 165.608 221.496 165.608 221.496C165.608 221.496 171.117 220.119 169.189 215.436C168.849 214.612 168.025 213.469 166.891 212.136C166.563 214.216 166.033 216.934 165.411 217.712C164.363 219.022 162.791 216.402 159.124 214.568C156.728 213.37 152.885 212.283 149.773 211.09Z" fill="#006850"/>
<path d="M136.325 200.485C128.233 192.991 117.995 183.395 117.995 183.395L112.041 182.535L111.344 182.933C111.344 182.933 128.146 197.808 131.727 199.46C133.946 200.485 135.107 200.346 136.325 200.485Z" fill="#006850"/>
<path d="M144.801 208.239C144.608 208.069 144.394 207.877 144.159 207.667C144.484 208.207 144.673 208.55 144.673 208.55C144.673 208.55 144.719 208.428 144.801 208.239Z" fill="#006850"/>
</g>
<mask id="mask4_49_7865" style="mask-type:luminance" maskUnits="userSpaceOnUse" x="94" y="172" width="112" height="131">
<path d="M94.6807 172.916C94.6807 172.957 94.6842 173.007 94.6907 173.065C94.6842 173.007 94.6807 172.957 94.6807 172.916ZM97.6345 180.453C95.9452 177.205 95.0519 174.699 94.7756 173.518C95.0512 174.699 95.9444 177.205 97.6345 180.453ZM94.6971 173.106C94.7035 173.155 94.7107 173.205 94.7221 173.264C94.7107 173.206 94.7042 173.156 94.6971 173.106ZM94.7314 173.308C94.7435 173.373 94.7578 173.439 94.7749 173.514C94.7571 173.439 94.7435 173.373 94.7314 173.308ZM97.6345 180.453C99.6679 184.363 102.855 189.347 107.516 194.396C116.947 204.613 144.192 231.334 146.811 233.167C149.431 235.001 148.645 240.24 146.811 245.48C144.978 250.719 138.166 258.316 138.428 266.699C138.69 275.082 141.31 287.918 141.048 290.538C140.786 293.158 134.237 302.064 134.237 302.064H201.824C201.824 302.064 193.405 291.363 193.405 287.696C193.405 284.028 204.968 237.097 205.492 233.691C206.016 230.286 203.921 227.928 199.729 227.666C195.537 227.404 179.557 223.998 178.771 221.379C177.985 218.759 182.962 208.804 182.962 208.804L167.244 209.59C167.244 209.59 166.458 216.401 165.411 217.711C164.363 219.022 162.791 216.401 159.124 214.568C155.456 212.734 148.383 211.162 145.764 209.066C143.144 206.971 117.996 183.394 117.996 183.394" fill="white"/>
</mask>
<g mask="url(#mask4_49_7865)">
<g opacity="0.5">
<path d="M149.773 211.09C151.084 213.374 152.386 215.436 152.386 215.436C152.386 215.436 156.793 217.915 157.895 217.915C158.997 217.915 165.608 221.496 165.608 221.496C165.608 221.496 171.117 220.119 169.189 215.436C168.849 214.612 168.025 213.469 166.891 212.136C166.563 214.216 166.033 216.934 165.411 217.712C164.363 219.022 162.791 216.402 159.124 214.568C156.728 213.37 152.885 212.283 149.773 211.09Z" fill="white"/>
<path d="M136.325 200.485C128.233 192.991 117.995 183.395 117.995 183.395L112.041 182.535L111.344 182.933C111.344 182.933 128.146 197.808 131.727 199.46C133.946 200.485 135.107 200.346 136.325 200.485Z" fill="white"/>
<path d="M144.801 208.239C144.608 208.069 144.394 207.877 144.159 207.667C144.484 208.207 144.673 208.55 144.673 208.55C144.673 208.55 144.719 208.428 144.801 208.239Z" fill="white"/>
</g>
</g>
<path d="M97.6345 180.453C99.6679 184.363 102.855 189.347 107.516 194.396C116.947 204.613 144.192 231.334 146.811 233.167C149.431 235.001 148.645 240.24 146.811 245.48C144.978 250.719 138.166 258.316 138.428 266.699C138.69 275.082 141.31 287.918 141.048 290.538C140.786 293.158 134.237 302.064 134.237 302.064H201.824C201.824 302.064 193.405 291.363 193.405 287.696C193.405 284.028 204.968 237.097 205.492 233.691C206.016 230.286 203.921 227.928 199.729 227.666C195.537 227.404 179.557 223.998 178.771 221.379C177.985 218.759 182.962 208.804 182.962 208.804L167.244 209.59C167.244 209.59 166.458 216.401 165.411 217.711C164.363 219.022 162.791 216.401 159.124 214.568C155.456 212.734 148.383 211.162 145.764 209.066C143.144 206.971 117.996 183.394 117.996 183.394M94.6807 172.916C94.6807 172.957 94.6842 173.007 94.6907 173.065C94.6842 173.007 94.6807 172.957 94.6807 172.916ZM97.6345 180.453C95.9452 177.205 95.0519 174.699 94.7756 173.518C95.0512 174.699 95.9444 177.205 97.6345 180.453ZM94.6971 173.106C94.7035 173.155 94.7107 173.205 94.7221 173.264C94.7107 173.206 94.7042 173.156 94.6971 173.106ZM94.7314 173.308C94.7435 173.373 94.7578 173.439 94.7749 173.514C94.7571 173.439 94.7435 173.373 94.7314 173.308Z" stroke="#263238" stroke-width="0.714" stroke-miterlimit="10" stroke-linecap="round" stroke-linejoin="round"/>
<path d="M117.996 183.394C117.996 183.394 109.631 183.551 104.957 179.701" stroke="#263238" stroke-width="0.714" stroke-miterlimit="10" stroke-linecap="round" stroke-linejoin="round"/>
<path d="M178.771 221.379C177.985 218.76 182.963 208.805 182.963 208.805L167.245 209.591C167.245 209.591 166.459 216.402 165.411 217.712C164.363 219.022 162.791 216.402 159.124 214.568C158.845 214.428 158.54 214.291 158.225 214.154L157.271 229.09C157.271 229.09 158.649 243.549 175.173 240.794C181.862 239.679 189.003 233.712 195.133 227.004C188.828 225.837 179.371 223.38 178.771 221.379Z" fill="white"/>
<mask id="mask5_49_7865" style="mask-type:luminance" maskUnits="userSpaceOnUse" x="157" y="208" width="39" height="34">
<path d="M178.771 221.379C177.985 218.76 182.963 208.805 182.963 208.805L167.245 209.591C167.245 209.591 166.459 216.402 165.411 217.712C164.363 219.022 162.791 216.402 159.124 214.568C158.845 214.428 158.54 214.291 158.225 214.154L157.271 229.09C157.271 229.09 158.649 243.549 175.173 240.794C181.862 239.679 189.003 233.712 195.133 227.004C188.828 225.837 179.371 223.38 178.771 221.379Z" fill="white"/>
</mask>
<g mask="url(#mask5_49_7865)">
<path d="M178.327 210.778C178.327 210.778 177.376 216.103 176.616 221.999C175.855 227.894 175.285 232.268 175.285 232.268L178.771 221.379L182.701 209.828C182.701 209.828 178.898 209.828 178.327 210.778Z" fill="#006850"/>
</g>
<mask id="mask6_49_7865" style="mask-type:luminance" maskUnits="userSpaceOnUse" x="157" y="208" width="39" height="34">
<path d="M178.771 221.379C177.985 218.76 182.963 208.805 182.963 208.805L167.245 209.591C167.245 209.591 166.459 216.402 165.411 217.712C164.363 219.022 162.791 216.402 159.124 214.568C158.845 214.428 158.54 214.291 158.225 214.154L157.271 229.09C157.271 229.09 158.649 243.549 175.173 240.794C181.862 239.679 189.003 233.712 195.133 227.004C188.828 225.837 179.371 223.38 178.771 221.379Z" fill="white"/>
</mask>
<g mask="url(#mask6_49_7865)">
<path opacity="0.5" d="M178.327 210.778C178.327 210.778 177.376 216.103 176.616 221.999C175.855 227.894 175.285 232.268 175.285 232.268L178.771 221.379L182.701 209.828C182.701 209.828 178.898 209.828 178.327 210.778Z" fill="white"/>
</g>
<path d="M178.771 221.379C177.985 218.76 182.963 208.805 182.963 208.805L167.245 209.591C167.245 209.591 166.459 216.402 165.411 217.712C164.363 219.022 162.791 216.402 159.124 214.568C158.845 214.428 158.54 214.291 158.225 214.154L157.271 229.09C157.271 229.09 158.649 243.549 175.173 240.794C181.862 239.679 189.003 233.712 195.133 227.004C188.828 225.837 179.371 223.38 178.771 221.379Z" stroke="#263238" stroke-width="0.714" stroke-miterlimit="10" stroke-linecap="round" stroke-linejoin="round"/>
<path d="M165.411 217.712C164.362 219.022 162.791 216.401 159.124 214.568C156.806 213.408 153.128 212.354 150.072 211.205C149.208 209.159 148.068 206.485 147.335 204.875C146.025 201.993 143.929 203.827 143.929 203.827C143.929 203.827 142.619 202.517 141.31 199.636C140 196.754 137.904 197.016 135.022 196.492C132.14 195.968 126.116 190.467 126.116 190.467C126.116 190.467 123.296 188.355 122.127 187.262C120.773 189.934 117.521 194.632 110.499 197.563C121.697 209.266 144.428 231.5 146.81 233.168C149.43 235.001 148.644 240.241 146.81 245.48C144.977 250.719 138.165 258.316 138.427 266.699C138.689 275.082 141.309 287.919 141.047 290.538C140.813 292.873 135.588 300.198 134.455 301.763L137.118 302.064H150.979C150.904 295.041 150.907 266.364 155.717 254.91C161.219 241.813 165.411 217.712 165.411 217.712Z" fill="#006850"/>
<mask id="mask7_49_7865" style="mask-type:luminance" maskUnits="userSpaceOnUse" x="110" y="187" width="56" height="116">
<path d="M165.411 217.712C164.362 219.022 162.791 216.401 159.124 214.568C156.806 213.408 153.128 212.354 150.072 211.205C149.208 209.159 148.068 206.485 147.335 204.875C146.025 201.993 143.929 203.827 143.929 203.827C143.929 203.827 142.619 202.517 141.31 199.636C140 196.754 137.904 197.016 135.022 196.492C132.14 195.968 126.116 190.467 126.116 190.467C126.116 190.467 123.296 188.355 122.127 187.262C120.773 189.934 117.521 194.632 110.499 197.563C121.697 209.266 144.428 231.5 146.81 233.168C149.43 235.001 148.644 240.241 146.81 245.48C144.977 250.719 138.165 258.316 138.427 266.699C138.689 275.082 141.309 287.919 141.047 290.538C140.813 292.873 135.588 300.198 134.455 301.763L137.118 302.064H150.979C150.904 295.041 150.907 266.364 155.717 254.91C161.219 241.813 165.411 217.712 165.411 217.712Z" fill="white"/>
</mask>
<g mask="url(#mask7_49_7865)">
<path opacity="0.16" d="M159.124 214.568C156.806 213.409 153.128 212.354 150.073 211.205C149.208 209.159 148.068 206.486 147.335 204.875C146.025 201.993 143.929 203.828 143.929 203.828C143.929 203.828 142.619 202.518 141.31 199.637C140 196.755 137.904 197.017 135.022 196.493C132.141 195.969 126.116 190.467 126.116 190.467C126.116 190.467 123.296 188.355 122.127 187.262C121.676 188.153 121.007 189.27 120.065 190.47C124.748 194.427 129.919 198.626 131.726 199.46C135.307 201.113 136.134 199.736 138.889 201.389C141.643 203.042 144.673 208.55 144.673 208.55C144.673 208.55 146.326 204.143 147.703 207.173C149.08 210.203 152.385 215.437 152.385 215.437C152.385 215.437 156.793 217.916 157.895 217.916C158.758 217.916 162.993 220.108 164.79 221.06C165.191 218.972 165.411 217.711 165.411 217.711C164.363 219.022 162.791 216.402 159.124 214.568Z" fill="black"/>
</g>
<path d="M165.411 217.712C164.362 219.022 162.791 216.401 159.124 214.568C156.806 213.408 153.128 212.354 150.072 211.205C149.208 209.159 148.068 206.485 147.335 204.875C146.025 201.993 143.929 203.827 143.929 203.827C143.929 203.827 142.619 202.517 141.31 199.636C140 196.754 137.904 197.016 135.022 196.492C132.14 195.968 126.116 190.467 126.116 190.467C126.116 190.467 123.296 188.355 122.127 187.262C120.773 189.934 117.521 194.632 110.499 197.563C121.697 209.266 144.428 231.5 146.81 233.168C149.43 235.001 148.644 240.241 146.81 245.48C144.977 250.719 138.165 258.316 138.427 266.699C138.689 275.082 141.309 287.919 141.047 290.538C140.813 292.873 135.588 300.198 134.455 301.763L137.118 302.064H150.979C150.904 295.041 150.907 266.364 155.717 254.91C161.219 241.813 165.411 217.712 165.411 217.712Z" stroke="#263238" stroke-width="0.714" stroke-miterlimit="10" stroke-linecap="round" stroke-linejoin="round"/>
<path d="M165.598 216.802C165.598 216.802 162.341 215.8 160.337 217.553C158.333 219.307 155.327 228.325 153.573 238.095C151.819 247.864 155.718 254.91 155.718 254.91C155.718 254.91 159.836 244.107 161.089 238.846C162.341 233.586 165.598 216.802 165.598 216.802Z" fill="#006850"/>
<mask id="mask8_49_7865" style="mask-type:luminance" maskUnits="userSpaceOnUse" x="153" y="216" width="13" height="39">
<path d="M165.598 216.802C165.598 216.802 162.341 215.8 160.337 217.553C158.333 219.307 155.327 228.325 153.573 238.095C151.819 247.864 155.718 254.91 155.718 254.91C155.718 254.91 159.836 244.107 161.089 238.846C162.341 233.586 165.598 216.802 165.598 216.802Z" fill="white"/>
</mask>
<g mask="url(#mask8_49_7865)">
<path opacity="0.16" d="M159.35 218.39C159.35 218.39 161.703 217.822 162.676 218.146C163.649 218.47 164.947 219.526 164.947 219.526L165.597 216.802C165.597 216.802 164.055 215.956 162.432 216.281C160.81 216.605 159.35 218.39 159.35 218.39Z" fill="black"/>
</g>
<path d="M165.598 216.802C165.598 216.802 162.341 215.8 160.337 217.553C158.333 219.307 155.327 228.325 153.573 238.095C151.819 247.864 155.718 254.91 155.718 254.91C155.718 254.91 159.836 244.107 161.089 238.846C162.341 233.586 165.598 216.802 165.598 216.802Z" stroke="#263238" stroke-width="0.714" stroke-miterlimit="10" stroke-linecap="round" stroke-linejoin="round"/>
<path d="M143.668 217.654L147.859 234.682L138.429 213.201" stroke="#263238" stroke-width="0.714" stroke-miterlimit="10" stroke-linecap="round" stroke-linejoin="round"/>
<path d="M171.283 302.064H201.824C201.824 302.064 193.404 291.363 193.404 287.695C193.404 284.028 204.968 237.097 205.492 233.691C206.016 230.286 203.92 227.928 199.728 227.666C195.537 227.404 179.557 223.998 178.771 221.378C178.771 221.378 172.746 242.598 170.65 257.006C168.853 269.361 170.716 295.007 171.283 302.064Z" fill="#006850"/>
<mask id="mask9_49_7865" style="mask-type:luminance" maskUnits="userSpaceOnUse" x="169" y="221" width="37" height="82">
<path d="M171.283 302.064H201.824C201.824 302.064 193.404 291.363 193.404 287.695C193.404 284.028 204.968 237.097 205.492 233.691C206.016 230.286 203.92 227.928 199.728 227.666C195.537 227.404 179.557 223.998 178.771 221.378C178.771 221.378 172.746 242.598 170.65 257.006C168.853 269.361 170.716 295.007 171.283 302.064Z" fill="white"/>
</mask>
<g mask="url(#mask9_49_7865)">
<path opacity="0.16" d="M199.728 227.666C196.293 227.451 184.946 225.125 180.527 222.851L182.13 226.563C182.13 226.563 186.124 228.845 191.449 229.796C196.774 230.747 201.718 230.556 204.951 235.311C205.004 235.389 205.057 235.47 205.11 235.55C205.312 234.635 205.445 233.991 205.491 233.692C206.015 230.286 203.919 227.928 199.728 227.666Z" fill="black"/>
</g>
<path d="M171.283 302.064H201.824C201.824 302.064 193.404 291.363 193.404 287.695C193.404 284.028 204.968 237.097 205.492 233.691C206.016 230.286 203.92 227.928 199.728 227.666C195.537 227.404 179.557 223.998 178.771 221.378C178.771 221.378 172.746 242.598 170.65 257.006C168.853 269.361 170.716 295.007 171.283 302.064Z" stroke="#263238" stroke-width="0.714" stroke-miterlimit="10" stroke-linecap="round" stroke-linejoin="round"/>
<path d="M178.771 221.379C178.771 221.379 170.692 247.109 170.65 257.006C170.65 257.006 182.131 243.105 183.635 233.335C185.138 223.565 178.771 221.379 178.771 221.379Z" fill="#006850"/>
<mask id="mask10_49_7865" style="mask-type:luminance" maskUnits="userSpaceOnUse" x="170" y="221" width="14" height="37">
<path d="M178.771 221.379C178.771 221.379 170.692 247.109 170.65 257.006C170.65 257.006 182.131 243.105 183.635 233.335C185.138 223.565 178.771 221.379 178.771 221.379Z" fill="white"/>
</mask>
<g mask="url(#mask10_49_7865)">
<path opacity="0.16" d="M177.376 224.661C177.376 224.661 180.99 224.281 183.651 227.704C183.651 227.704 182.067 223.041 178.77 221.379L177.376 224.661Z" fill="black"/>
</g>
<path d="M178.771 221.379C178.771 221.379 170.692 247.109 170.65 257.006C170.65 257.006 182.131 243.105 183.635 233.335C185.138 223.565 178.771 221.379 178.771 221.379Z" stroke="#263238" stroke-width="0.714" stroke-miterlimit="10" stroke-linecap="round" stroke-linejoin="round"/>
<path d="M265.062 297.229C265.062 297.229 270.979 297.472 274.854 298.032C278.728 298.59 282.648 298.65 282.648 298.65C282.648 298.65 280.53 294.327 278.227 293.108C275.923 291.889 271.796 289.696 268.329 290.182C264.862 290.667 259.911 294.137 260.309 295.281C260.706 296.424 262.576 296.899 265.062 297.229Z" fill="white"/>
<mask id="mask11_49_7865" style="mask-type:luminance" maskUnits="userSpaceOnUse" x="260" y="290" width="23" height="9">
<path d="M265.062 297.229C265.062 297.229 270.979 297.472 274.854 298.032C278.728 298.59 282.648 298.65 282.648 298.65C282.648 298.65 280.53 294.327 278.227 293.108C275.923 291.889 271.796 289.696 268.329 290.182C264.862 290.667 259.911 294.137 260.309 295.281C260.706 296.424 262.576 296.899 265.062 297.229Z" fill="white"/>
</mask>
<g mask="url(#mask11_49_7865)">
<path d="M265.062 297.229C265.062 297.229 270.979 297.472 274.854 298.032C278.728 298.59 282.648 298.65 282.648 298.65C282.648 298.65 280.53 294.327 278.227 293.108C275.923 291.889 271.796 289.696 268.329 290.182C264.862 290.667 259.911 294.137 260.309 295.281C260.706 296.424 262.576 296.899 265.062 297.229Z" fill="#006850"/>
</g>
<mask id="mask12_49_7865" style="mask-type:luminance" maskUnits="userSpaceOnUse" x="260" y="290" width="23" height="9">
<path d="M265.062 297.229C265.062 297.229 270.979 297.472 274.854 298.032C278.728 298.59 282.648 298.65 282.648 298.65C282.648 298.65 280.53 294.327 278.227 293.108C275.923 291.889 271.796 289.696 268.329 290.182C264.862 290.667 259.911 294.137 260.309 295.281C260.706 296.424 262.576 296.899 265.062 297.229Z" fill="white"/>
</mask>
<g mask="url(#mask12_49_7865)">
<path opacity="0.5" d="M265.062 297.229C265.062 297.229 270.979 297.472 274.854 298.032C278.728 298.59 282.648 298.65 282.648 298.65C282.648 298.65 280.53 294.327 278.227 293.108C275.923 291.889 271.796 289.696 268.329 290.182C264.862 290.667 259.911 294.137 260.309 295.281C260.706 296.424 262.576 296.899 265.062 297.229Z" fill="white"/>
</g>
<path d="M265.062 297.229C265.062 297.229 270.979 297.472 274.854 298.032C278.728 298.59 282.648 298.65 282.648 298.65C282.648 298.65 280.53 294.327 278.227 293.108C275.923 291.889 271.796 289.696 268.329 290.182C264.862 290.667 259.911 294.137 260.309 295.281C260.706 296.424 262.576 296.899 265.062 297.229Z" stroke="#263238" stroke-width="0.714" stroke-miterlimit="10" stroke-linecap="round" stroke-linejoin="round"/>
<path d="M274.861 295.463C274.861 295.463 279.55 293.027 280.726 293.058C281.902 293.088 289.68 298.361 289.293 299.204C288.906 300.046 287.428 300.393 286.835 300.114C285.974 299.711 280.734 297.482 280.734 297.482L277.305 298.286L274.861 295.463Z" fill="white"/>
<mask id="mask13_49_7865" style="mask-type:luminance" maskUnits="userSpaceOnUse" x="274" y="293" width="16" height="8">
<path d="M274.861 295.463C274.861 295.463 279.55 293.027 280.726 293.058C281.902 293.088 289.68 298.361 289.293 299.204C288.906 300.046 287.428 300.393 286.835 300.114C285.974 299.711 280.734 297.482 280.734 297.482L277.305 298.286L274.861 295.463Z" fill="white"/>
</mask>
<g mask="url(#mask13_49_7865)">
<path d="M274.861 295.463C274.861 295.463 279.55 293.027 280.726 293.058C281.902 293.088 289.68 298.361 289.293 299.204C288.906 300.046 287.062 300.729 286.835 300.114C286.607 299.499 280.734 297.482 280.734 297.482L277.305 298.286L274.861 295.463Z" fill="#006850"/>
</g>
<mask id="mask14_49_7865" style="mask-type:luminance" maskUnits="userSpaceOnUse" x="274" y="293" width="16" height="8">
<path d="M274.861 295.463C274.861 295.463 279.55 293.027 280.726 293.058C281.902 293.088 289.68 298.361 289.293 299.204C288.906 300.046 287.428 300.393 286.835 300.114C285.974 299.711 280.734 297.482 280.734 297.482L277.305 298.286L274.861 295.463Z" fill="white"/>
</mask>
<g mask="url(#mask14_49_7865)">
<path opacity="0.5" d="M274.861 295.463C274.861 295.463 279.55 293.027 280.726 293.058C281.902 293.088 289.68 298.361 289.293 299.204C288.906 300.046 287.062 300.729 286.835 300.114C286.607 299.499 280.734 297.482 280.734 297.482L277.305 298.286L274.861 295.463Z" fill="white"/>
</g>
<path d="M274.861 295.463C274.861 295.463 279.55 293.027 280.726 293.058C281.902 293.088 289.68 298.361 289.293 299.204C288.906 300.046 287.428 300.393 286.835 300.114C285.974 299.711 280.734 297.482 280.734 297.482L277.305 298.286L274.861 295.463Z" stroke="#263238" stroke-width="0.714" stroke-miterlimit="10" stroke-linecap="round" stroke-linejoin="round"/>
<path d="M271.54 291.454C271.54 291.454 277.798 291.251 279.039 291.885C280.281 292.519 285.893 302.135 285.048 302.838C284.204 303.54 281.884 303.326 281.955 302.552C282.027 301.779 276.784 296.616 276.784 296.616L272.707 295.72L271.54 291.454Z" fill="white"/>
<mask id="mask15_49_7865" style="mask-type:luminance" maskUnits="userSpaceOnUse" x="271" y="291" width="15" height="13">
<path d="M271.54 291.454C271.54 291.454 277.798 291.251 279.039 291.885C280.281 292.519 285.893 302.135 285.048 302.838C284.204 303.54 281.884 303.326 281.955 302.552C282.027 301.779 276.784 296.616 276.784 296.616L272.707 295.72L271.54 291.454Z" fill="white"/>
</mask>
<g mask="url(#mask15_49_7865)">
<path d="M271.54 291.454C271.54 291.454 277.798 291.251 279.039 291.885C280.281 292.519 285.893 302.135 285.048 302.838C284.204 303.54 281.884 303.326 281.955 302.552C282.027 301.779 276.784 296.616 276.784 296.616L272.707 295.72L271.54 291.454Z" fill="#006850"/>
</g>
<mask id="mask16_49_7865" style="mask-type:luminance" maskUnits="userSpaceOnUse" x="271" y="291" width="15" height="13">
<path d="M271.54 291.454C271.54 291.454 277.798 291.251 279.039 291.885C280.281 292.519 285.893 302.135 285.048 302.838C284.204 303.54 281.884 303.326 281.955 302.552C282.027 301.779 276.784 296.616 276.784 296.616L272.707 295.72L271.54 291.454Z" fill="white"/>
</mask>
<g mask="url(#mask16_49_7865)">
<path opacity="0.5" d="M271.54 291.454C271.54 291.454 277.798 291.251 279.039 291.885C280.281 292.519 285.893 302.135 285.048 302.838C284.204 303.54 281.884 303.326 281.955 302.552C282.027 301.779 276.784 296.616 276.784 296.616L272.707 295.72L271.54 291.454Z" fill="white"/>
</g>
<path d="M271.54 291.454C271.54 291.454 277.798 291.251 279.039 291.885C280.281 292.519 285.893 302.135 285.048 302.838C284.204 303.54 281.884 303.326 281.955 302.552C282.027 301.779 276.784 296.616 276.784 296.616L272.707 295.72L271.54 291.454Z" stroke="#263238" stroke-width="0.714" stroke-miterlimit="10" stroke-linecap="round" stroke-linejoin="round"/>
<path d="M267.839 290.163C267.839 290.163 274.172 289.958 275.428 290.6C276.684 291.242 282.364 300.973 281.51 301.684C280.655 302.394 278.307 302.178 278.379 301.395C278.452 300.613 273.146 295.388 273.146 295.388L269.02 294.481L267.839 290.163Z" fill="white"/>
<mask id="mask17_49_7865" style="mask-type:luminance" maskUnits="userSpaceOnUse" x="267" y="290" width="15" height="13">
<path d="M267.839 290.163C267.839 290.163 274.172 289.958 275.428 290.6C276.684 291.242 282.364 300.973 281.51 301.684C280.655 302.394 278.307 302.178 278.379 301.395C278.452 300.613 273.146 295.388 273.146 295.388L269.02 294.481L267.839 290.163Z" fill="white"/>
</mask>
<g mask="url(#mask17_49_7865)">
<path d="M267.839 290.163C267.839 290.163 274.172 289.958 275.428 290.6C276.684 291.242 282.364 300.973 281.51 301.684C280.655 302.394 278.307 302.178 278.379 301.395C278.452 300.613 273.146 295.388 273.146 295.388L269.02 294.481L267.839 290.163Z" fill="#006850"/>
</g>
<mask id="mask18_49_7865" style="mask-type:luminance" maskUnits="userSpaceOnUse" x="267" y="290" width="15" height="13">
<path d="M267.839 290.163C267.839 290.163 274.172 289.958 275.428 290.6C276.684 291.242 282.364 300.973 281.51 301.684C280.655 302.394 278.307 302.178 278.379 301.395C278.452 300.613 273.146 295.388 273.146 295.388L269.02 294.481L267.839 290.163Z" fill="white"/>
</mask>
<g mask="url(#mask18_49_7865)">
<path opacity="0.5" d="M267.839 290.163C267.839 290.163 274.172 289.958 275.428 290.6C276.684 291.242 282.364 300.973 281.51 301.684C280.655 302.394 278.307 302.178 278.379 301.395C278.452 300.613 273.146 295.388 273.146 295.388L269.02 294.481L267.839 290.163Z" fill="white"/>
</g>
<path d="M267.839 290.163C267.839 290.163 274.172 289.958 275.428 290.6C276.684 291.242 282.364 300.973 281.51 301.684C280.655 302.394 278.307 302.178 278.379 301.395C278.452 300.613 273.146 295.388 273.146 295.388L269.02 294.481L267.839 290.163Z" stroke="#263238" stroke-width="0.714" stroke-miterlimit="10" stroke-linecap="round" stroke-linejoin="round"/>
<path d="M195.829 253.876C200.411 260.938 209.614 278.828 212.303 280.846C216.494 283.989 244.511 291.613 247.212 293.704C249.913 295.795 249.721 297.882 252.282 298.643C254.842 299.406 264.424 301.604 268.076 301.941C271.728 302.278 270.094 300.023 270.094 300.023L263.86 295.765L269.295 294.424C269.295 294.424 274.742 300.977 275.761 301.334C276.781 301.691 278.585 301.319 278.466 300.531C278.27 299.236 272.457 288.665 270.394 288.212C268.332 287.758 255.807 289.498 255.807 289.498C255.807 289.498 229.541 271.782 229.069 271.153C229.069 271.153 227.498 266.7 226.188 264.866C224.877 263.033 224.092 263.556 224.092 263.556C224.092 263.556 224.616 261.198 223.83 260.412C223.044 259.626 219.639 256.221 219.639 256.221L219.492 256.422C218.803 254.984 218.071 253.363 217.281 251.506C215.086 246.347 207.327 231.859 206.016 229.762C205.043 228.205 196.84 227.082 192.688 226.608" fill="#006850"/>
<mask id="mask19_49_7865" style="mask-type:luminance" maskUnits="userSpaceOnUse" x="192" y="226" width="87" height="76">
<path d="M195.829 253.876C200.411 260.938 209.614 278.828 212.303 280.846C216.494 283.989 244.511 291.613 247.212 293.704C249.913 295.795 249.721 297.882 252.282 298.643C254.842 299.406 264.424 301.604 268.076 301.941C271.728 302.278 270.094 300.023 270.094 300.023L263.86 295.765L269.295 294.424C269.295 294.424 274.742 300.977 275.761 301.334C276.781 301.691 278.585 301.319 278.466 300.531C278.27 299.236 272.457 288.665 270.394 288.212C268.332 287.758 255.807 289.498 255.807 289.498C255.807 289.498 229.541 271.782 229.069 271.153C229.069 271.153 227.498 266.7 226.188 264.866C224.877 263.033 224.092 263.556 224.092 263.556C224.092 263.556 224.616 261.198 223.83 260.412C223.044 259.626 219.639 256.221 219.639 256.221L219.492 256.422C218.803 254.984 218.071 253.363 217.281 251.506C215.086 246.347 207.327 231.859 206.016 229.762C205.043 228.205 196.84 227.082 192.688 226.608" fill="white"/>
</mask>
<g mask="url(#mask19_49_7865)">
<path opacity="0.16" d="M214.08 254.328C217.503 257.371 216.362 257.371 215.602 260.034C214.841 262.696 216.172 259.083 219.405 259.273C222.638 259.463 221.687 263.647 221.307 264.408C220.926 265.168 225.3 266.119 224.539 267.831C223.779 269.542 219.405 272.015 216.933 274.487C214.46 276.958 223.399 270.493 226.441 270.303C227.366 270.245 228.131 270.362 228.771 270.345C228.254 268.977 227.151 266.214 226.187 264.865C224.877 263.031 224.091 263.555 224.091 263.555C224.091 263.555 224.615 261.197 223.829 260.411C223.043 259.625 219.638 256.22 219.638 256.22L219.491 256.421C218.802 254.982 218.07 253.361 217.28 251.504C215.085 246.346 207.326 231.857 206.015 229.761C205.042 228.204 196.839 227.081 192.687 226.606L193.068 229.913L193.161 229.986C193.161 229.986 198.295 230.937 200.007 231.127C201.719 231.317 203.811 232.838 203.621 233.979C203.431 235.12 198.486 240.255 200.007 240.635C201.529 241.016 203.24 236.832 204.952 237.402C206.663 237.973 210.656 251.286 214.08 254.328Z" fill="black"/>
</g>
<path d="M195.829 253.876C200.411 260.938 209.614 278.828 212.303 280.846C216.494 283.989 244.511 291.613 247.212 293.704C249.913 295.795 249.721 297.882 252.282 298.643C254.842 299.406 264.424 301.604 268.076 301.941C271.728 302.278 270.094 300.023 270.094 300.023L263.86 295.765L269.295 294.424C269.295 294.424 274.742 300.977 275.761 301.334C276.781 301.691 278.585 301.319 278.466 300.531C278.27 299.236 272.457 288.665 270.394 288.212C268.332 287.758 255.807 289.498 255.807 289.498C255.807 289.498 229.541 271.782 229.069 271.153C229.069 271.153 227.498 266.7 226.188 264.866C224.877 263.033 224.092 263.556 224.092 263.556C224.092 263.556 224.616 261.198 223.83 260.412C223.044 259.626 219.639 256.221 219.639 256.221L219.492 256.422C218.803 254.984 218.071 253.363 217.281 251.506C215.086 246.347 207.327 231.859 206.016 229.762C205.043 228.205 196.84 227.082 192.688 226.608" stroke="#263238" stroke-width="0.714" stroke-miterlimit="10" stroke-linecap="round" stroke-linejoin="round"/>
<path d="M195.901 244.172C195.705 244.813 195.54 245.462 195.414 246.117" stroke="#263238" stroke-width="0.714" stroke-miterlimit="10" stroke-linecap="round" stroke-linejoin="round"/>
<path d="M202.837 232.369C202.837 232.369 199.491 236.02 197.21 240.832" stroke="#263238" stroke-width="0.714" stroke-miterlimit="10" stroke-linecap="round" stroke-linejoin="round"/>
<path d="M213.326 272.914C215.256 270.093 218.309 266.436 221.712 265.401" stroke="#263238" stroke-width="0.714" stroke-miterlimit="10" stroke-linecap="round" stroke-linejoin="round"/>
<path d="M211.19 276.423C211.19 276.423 211.534 275.754 212.149 274.742" stroke="#263238" stroke-width="0.714" stroke-miterlimit="10" stroke-linecap="round" stroke-linejoin="round"/>
<path d="M211.19 271.913C211.19 271.913 214.698 263.145 218.205 260.891C221.712 258.636 219.708 263.145 219.708 263.145" stroke="#263238" stroke-width="0.714" stroke-miterlimit="10" stroke-linecap="round" stroke-linejoin="round"/>
<path d="M247.212 293.703C249.913 295.794 249.721 297.881 252.281 298.643C254.842 299.405 264.424 301.604 268.076 301.941C271.728 302.278 270.094 300.022 270.094 300.022L263.86 295.764L269.295 294.424C269.295 294.424 274.742 300.977 275.761 301.334C276.781 301.691 278.722 301.821 278.466 300.53C277.968 298.026 272.457 288.664 270.394 288.211C268.331 287.758 255.806 289.497 255.806 289.497C255.806 289.497 231.878 273.056 229.26 271.297C219.098 272.275 214.251 277.599 212.234 280.788C212.257 280.806 212.282 280.828 212.304 280.845C216.494 283.988 244.511 291.613 247.212 293.703Z" fill="white"/>
<mask id="mask20_49_7865" style="mask-type:luminance" maskUnits="userSpaceOnUse" x="212" y="271" width="67" height="31">
<path d="M247.212 293.703C249.913 295.794 249.721 297.881 252.281 298.643C254.842 299.405 264.424 301.604 268.076 301.941C271.728 302.278 270.094 300.022 270.094 300.022L263.86 295.764L269.295 294.424C269.295 294.424 274.742 300.977 275.761 301.334C276.781 301.691 278.722 301.821 278.466 300.53C277.968 298.026 272.457 288.664 270.394 288.211C268.331 287.758 255.806 289.497 255.806 289.497C255.806 289.497 231.878 273.056 229.26 271.297C219.098 272.275 214.251 277.599 212.234 280.788C212.257 280.806 212.282 280.828 212.304 280.845C216.494 283.988 244.511 291.613 247.212 293.703Z" fill="white"/>
</mask>
<g mask="url(#mask20_49_7865)">
<path d="M278.465 300.531C277.171 297.351 272.456 288.664 270.394 288.212C268.331 287.758 255.806 289.498 255.806 289.498C255.806 289.498 231.878 273.057 229.259 271.298C226.213 271.591 223.652 272.279 221.495 273.179C225.272 275.309 250.45 289.583 253.617 290.235C256.991 290.928 268.237 289.1 270.215 290.428C271.473 291.273 275.193 297.206 277.738 301.417C278.475 301.292 278.727 301.173 278.465 300.531Z" fill="#006850"/>
</g>
<mask id="mask21_49_7865" style="mask-type:luminance" maskUnits="userSpaceOnUse" x="212" y="271" width="67" height="31">
<path d="M247.212 293.703C249.913 295.794 249.721 297.881 252.281 298.643C254.842 299.405 264.424 301.604 268.076 301.941C271.728 302.278 270.094 300.022 270.094 300.022L263.86 295.764L269.295 294.424C269.295 294.424 274.742 300.977 275.761 301.334C276.781 301.691 278.722 301.821 278.466 300.53C277.968 298.026 272.457 288.664 270.394 288.211C268.331 287.758 255.806 289.497 255.806 289.497C255.806 289.497 231.878 273.056 229.26 271.297C219.098 272.275 214.251 277.599 212.234 280.788C212.257 280.806 212.282 280.828 212.304 280.845C216.494 283.988 244.511 291.613 247.212 293.703Z" fill="white"/>
</mask>
<g mask="url(#mask21_49_7865)">
<path opacity="0.5" d="M278.465 300.531C276.44 295.982 272.456 288.664 270.394 288.212C268.331 287.758 255.806 289.498 255.806 289.498C255.806 289.498 231.878 273.057 229.259 271.298C226.213 271.591 223.652 272.279 221.495 273.179C225.272 275.309 250.45 289.583 253.617 290.235C256.991 290.928 268.237 289.1 270.215 290.428C271.473 291.273 275.193 297.206 277.738 301.417C278.475 301.292 278.747 301.164 278.465 300.531Z" fill="white"/>
</g>
<path d="M247.212 293.703C249.913 295.794 249.721 297.881 252.281 298.643C254.842 299.405 264.424 301.604 268.076 301.941C271.728 302.278 270.094 300.022 270.094 300.022L263.86 295.764L269.295 294.424C269.295 294.424 274.742 300.977 275.761 301.334C276.781 301.691 278.722 301.821 278.466 300.53C277.968 298.026 272.457 288.664 270.394 288.211C268.331 287.758 255.806 289.497 255.806 289.497C255.806 289.497 231.878 273.056 229.26 271.297C219.098 272.275 214.251 277.599 212.234 280.788C212.257 280.806 212.282 280.828 212.304 280.845C216.494 283.988 244.511 291.613 247.212 293.703Z" stroke="#263238" stroke-width="0.714" stroke-miterlimit="10" stroke-linecap="round" stroke-linejoin="round"/>
<path d="M184.104 169.025L162.6 177.998C162.6 177.998 162.38 183.547 159.839 188.928C157.298 194.31 158.78 204.481 161.221 209.97C163.662 215.459 174.42 213.313 178.382 212.629C182.345 211.945 186.192 210.355 186.192 210.355C186.192 210.355 189.705 211.935 193.155 209.384C193.155 209.384 181.622 177.069 184.104 169.025Z" fill="white"/>
<mask id="mask22_49_7865" style="mask-type:luminance" maskUnits="userSpaceOnUse" x="158" y="169" width="36" height="45">
<path d="M184.104 169.025L162.6 177.998C162.6 177.998 162.38 183.547 159.839 188.928C157.298 194.31 158.78 204.481 161.221 209.97C163.662 215.459 174.42 213.313 178.382 212.629C182.345 211.945 186.192 210.355 186.192 210.355C186.192 210.355 189.705 211.935 193.155 209.384C193.155 209.384 181.622 177.069 184.104 169.025Z" fill="white"/>
</mask>
<g mask="url(#mask22_49_7865)">
<path d="M184.104 169.025L162.6 177.998C162.6 177.998 162.38 183.547 159.839 188.928C157.298 194.31 158.78 204.48 161.221 209.97C161.635 210.902 162.293 211.609 163.113 212.145V211.73C163.113 211.73 159.12 201.841 159.88 196.135C160.64 190.43 163.873 187.577 164.254 183.964C164.635 180.351 164.444 178.639 171.671 175.977C178.897 173.314 181.941 170.843 182.701 173.504C183.461 176.167 186.504 193.663 188.596 197.847C190.688 202.031 190.498 206.405 187.266 208.306C184.659 209.839 180.695 211.864 176.865 212.891C177.437 212.794 177.951 212.702 178.382 212.628C182.345 211.944 186.192 210.354 186.192 210.354C186.192 210.354 189.705 211.935 193.155 209.383C193.155 209.383 181.622 177.069 184.104 169.025Z" fill="#006850"/>
</g>
<mask id="mask23_49_7865" style="mask-type:luminance" maskUnits="userSpaceOnUse" x="158" y="169" width="36" height="45">
<path d="M184.104 169.025L162.6 177.998C162.6 177.998 162.38 183.547 159.839 188.928C157.298 194.31 158.78 204.481 161.221 209.97C163.662 215.459 174.42 213.313 178.382 212.629C182.345 211.945 186.192 210.355 186.192 210.355C186.192 210.355 189.705 211.935 193.155 209.384C193.155 209.384 181.622 177.069 184.104 169.025Z" fill="white"/>
</mask>
<g mask="url(#mask23_49_7865)">
<path opacity="0.5" d="M184.104 169.025L162.6 177.998C162.6 177.998 162.38 183.547 159.839 188.928C157.298 194.31 158.78 204.48 161.221 209.97C161.635 210.902 162.293 211.609 163.113 212.145V211.73C163.113 211.73 159.12 201.841 159.88 196.135C160.64 190.43 163.873 187.577 164.254 183.964C164.635 180.351 164.444 178.639 171.671 175.977C178.897 173.314 181.941 170.843 182.701 173.504C183.461 176.167 186.504 193.663 188.596 197.847C190.688 202.031 190.498 206.405 187.266 208.306C184.659 209.839 180.695 211.864 176.865 212.891C177.437 212.794 177.951 212.702 178.382 212.628C182.345 211.944 186.192 210.354 186.192 210.354C186.192 210.354 189.705 211.935 193.155 209.383C193.155 209.383 181.622 177.069 184.104 169.025Z" fill="white"/>
</g>
<path d="M184.104 169.025L162.6 177.998C162.6 177.998 162.38 183.547 159.839 188.928C157.298 194.31 158.78 204.481 161.221 209.97C163.662 215.459 174.42 213.313 178.382 212.629C182.345 211.945 186.192 210.355 186.192 210.355C186.192 210.355 189.705 211.935 193.155 209.384C193.155 209.384 181.622 177.069 184.104 169.025Z" stroke="#263238" stroke-width="0.714" stroke-miterlimit="10" stroke-linecap="round" stroke-linejoin="round"/>
<path d="M173.237 183.099C173.237 183.099 173.349 185.394 172.777 186.842C172.205 188.291 166.814 193.882 166.978 194.483C167.143 195.084 167.625 197.039 168.582 197.229" stroke="#263238" stroke-width="0.714" stroke-miterlimit="10" stroke-linecap="round" stroke-linejoin="round"/>
<path d="M179.198 188.119C179.949 186.622 182.414 188.085 182.379 191.459" stroke="#263238" stroke-width="0.714" stroke-miterlimit="10" stroke-linecap="round" stroke-linejoin="round"/>
<path d="M167.008 183.708C167.008 183.708 169.107 182.781 170.978 186.184" stroke="#263238" stroke-width="0.714" stroke-miterlimit="10" stroke-linecap="round" stroke-linejoin="round"/>
<path d="M176.227 193.067C176.227 193.067 179.763 193.045 182.747 195.799" stroke="#263238" stroke-width="0.357" stroke-miterlimit="10" stroke-linecap="round" stroke-linejoin="round"/>
<path d="M164.473 188.601C164.473 188.601 166.823 188.926 168.108 189.607" stroke="#263238" stroke-width="0.357" stroke-miterlimit="10" stroke-linecap="round" stroke-linejoin="round"/>
<path d="M173.003 179.942C173.003 179.942 171.31 178.935 169.388 179.855C167.466 180.775 166.288 181.794 166.417 180.611C166.547 179.427 168.807 178.134 169.481 177.962C170.156 177.791 173.195 177.305 173.003 179.942Z" fill="#263238"/>
<path d="M178.386 177.268C178.386 177.268 181.609 179.75 183.023 183.308C184.437 186.865 185.58 182.974 184.435 180.64C183.29 178.307 180.067 175.825 178.386 177.268Z" fill="#263238"/>
<path d="M193.441 215.485C193.441 217.149 192.503 218.497 191.346 218.497C190.188 218.497 189.25 217.149 189.25 215.485C189.25 213.821 190.188 209.591 191.346 209.591C192.503 209.59 193.441 213.821 193.441 215.485Z" fill="#006850" stroke="#263238" stroke-width="0.714" stroke-miterlimit="10" stroke-linecap="round" stroke-linejoin="round"/>
<path d="M179.4 187.469C179.323 187.675 179.257 187.899 179.208 188.141C178.998 189.197 178.792 191.405 179.245 191.495C179.698 191.585 180.638 189.523 180.848 188.467C180.892 188.248 180.914 188.039 180.923 187.837C180.396 187.674 179.866 187.555 179.4 187.469Z" fill="#263238"/>
<path d="M167.222 183.514C167.161 183.691 167.106 183.879 167.066 184.081C166.856 185.138 166.862 187.459 167.315 187.549C167.768 187.639 168.496 185.464 168.706 184.407C168.76 184.133 168.787 183.869 168.789 183.626C168.211 183.471 167.681 183.457 167.222 183.514Z" fill="#263238"/>
<path d="M179.23 188.15L179.928 186.822C179.928 186.822 181.77 187.129 182.844 188.51" stroke="#263238" stroke-width="0.5355" stroke-miterlimit="10" stroke-linecap="round" stroke-linejoin="round"/>
<path d="M167.222 183.514L167.953 182.677C167.953 182.677 168.26 182.524 169.949 183.291" stroke="#263238" stroke-width="0.5355" stroke-miterlimit="10" stroke-linecap="round" stroke-linejoin="round"/>
<path d="M164.512 202.861C164.512 202.861 165.715 200.655 167.318 200.655C168.922 200.655 170.125 204.264 170.125 204.264" stroke="#263238" stroke-width="0.714" stroke-miterlimit="10" stroke-linecap="round" stroke-linejoin="round"/>
<path d="M112.841 298.011C111.038 298.011 109.092 297.26 108.342 296.939C107.552 296.601 107.187 295.686 107.525 294.896C107.864 294.107 108.779 293.742 109.568 294.08C111.005 294.692 112.848 295.066 113.345 294.854C114.245 293.838 115.642 287.686 113.838 284.756C113.436 284.102 113.057 283.982 112.807 283.948C111.786 283.807 110.27 284.86 109.734 285.36C109.106 285.946 108.122 285.913 107.536 285.285C106.95 284.656 106.983 283.672 107.611 283.085C107.897 282.819 110.478 280.493 113.223 280.865C114.154 280.991 115.478 281.485 116.488 283.125C119.142 287.439 117.322 295.662 115.288 297.289C114.623 297.82 113.75 298.011 112.841 298.011Z" fill="white"/>
<mask id="mask24_49_7865" style="mask-type:luminance" maskUnits="userSpaceOnUse" x="107" y="280" width="11" height="19">
<path d="M112.841 298.011C111.038 298.011 109.092 297.26 108.342 296.939C107.552 296.601 107.187 295.686 107.525 294.896C107.864 294.107 108.779 293.742 109.568 294.08C111.005 294.692 112.848 295.066 113.345 294.854C114.245 293.838 115.642 287.686 113.838 284.756C113.436 284.102 113.057 283.982 112.807 283.948C111.786 283.807 110.27 284.86 109.734 285.36C109.106 285.946 108.122 285.913 107.536 285.285C106.95 284.656 106.983 283.672 107.611 283.085C107.897 282.819 110.478 280.493 113.223 280.865C114.154 280.991 115.478 281.485 116.488 283.125C119.142 287.439 117.322 295.662 115.288 297.289C114.623 297.82 113.75 298.011 112.841 298.011Z" fill="white"/>
</mask>
<g mask="url(#mask24_49_7865)">
<path d="M114.907 284.284C114.251 283.023 113.39 282.642 112.785 282.545C111.001 282.259 109.323 284.049 109.138 284.253C108.781 284.647 108.738 285.266 108.983 285.741C109.255 285.686 109.516 285.562 109.734 285.359C110.27 284.859 111.786 283.806 112.807 283.946C113.057 283.981 113.436 284.101 113.838 284.755C115.642 287.685 114.245 293.837 113.345 294.853C112.849 295.065 111.005 294.691 109.568 294.078C109.386 294 109.198 293.964 109.012 293.957C109.054 294.366 109.27 294.737 109.613 294.911C110.1 295.158 111.366 295.735 112.537 295.735C113.128 295.735 113.695 295.589 114.127 295.179C115.449 293.929 116.632 287.603 114.907 284.284Z" fill="#006850"/>
</g>
<mask id="mask25_49_7865" style="mask-type:luminance" maskUnits="userSpaceOnUse" x="107" y="280" width="11" height="19">
<path d="M112.841 298.011C111.038 298.011 109.092 297.26 108.342 296.939C107.552 296.601 107.187 295.686 107.525 294.896C107.864 294.107 108.779 293.742 109.568 294.08C111.005 294.692 112.848 295.066 113.345 294.854C114.245 293.838 115.642 287.686 113.838 284.756C113.436 284.102 113.057 283.982 112.807 283.948C111.786 283.807 110.27 284.86 109.734 285.36C109.106 285.946 108.122 285.913 107.536 285.285C106.95 284.656 106.983 283.672 107.611 283.085C107.897 282.819 110.478 280.493 113.223 280.865C114.154 280.991 115.478 281.485 116.488 283.125C119.142 287.439 117.322 295.662 115.288 297.289C114.623 297.82 113.75 298.011 112.841 298.011Z" fill="white"/>
</mask>
<g mask="url(#mask25_49_7865)">
<path opacity="0.5" d="M114.907 284.284C114.251 283.023 113.39 282.642 112.785 282.545C111.001 282.259 109.323 284.049 109.138 284.253C108.781 284.647 108.738 285.266 108.983 285.741C109.255 285.686 109.516 285.562 109.734 285.359C110.27 284.859 111.786 283.806 112.807 283.946C113.057 283.981 113.436 284.101 113.838 284.755C115.642 287.685 114.245 293.837 113.345 294.853C112.849 295.065 111.005 294.691 109.568 294.078C109.386 294 109.198 293.964 109.012 293.957C109.054 294.366 109.27 294.737 109.613 294.911C110.1 295.158 111.366 295.735 112.537 295.735C113.128 295.735 113.695 295.589 114.127 295.179C115.449 293.929 116.632 287.603 114.907 284.284Z" fill="white"/>
</g>
<path d="M112.841 298.011C111.038 298.011 109.092 297.26 108.342 296.939C107.552 296.601 107.187 295.686 107.525 294.896C107.864 294.107 108.779 293.742 109.568 294.08C111.005 294.692 112.848 295.066 113.345 294.854C114.245 293.838 115.642 287.686 113.838 284.756C113.436 284.102 113.057 283.982 112.807 283.948C111.786 283.807 110.27 284.86 109.734 285.36C109.106 285.946 108.122 285.913 107.536 285.285C106.95 284.656 106.983 283.672 107.611 283.085C107.897 282.819 110.478 280.493 113.223 280.865C114.154 280.991 115.478 281.485 116.488 283.125C119.142 287.439 117.322 295.662 115.288 297.289C114.623 297.82 113.75 298.011 112.841 298.011Z" stroke="#263238" stroke-width="0.714" stroke-miterlimit="10" stroke-linecap="round" stroke-linejoin="round"/>
<path d="M110.086 279.588H92.9131V302.382H110.086V279.588Z" fill="white"/>
<mask id="mask26_49_7865" style="mask-type:luminance" maskUnits="userSpaceOnUse" x="92" y="279" width="19" height="24">
<path d="M110.086 279.588H92.9131V302.382H110.086V279.588Z" fill="white"/>
</mask>
<g mask="url(#mask26_49_7865)">
<path d="M99.9474 279.588H92.9131V302.382H99.9474V279.588Z" fill="#006850"/>
</g>
<mask id="mask27_49_7865" style="mask-type:luminance" maskUnits="userSpaceOnUse" x="92" y="279" width="19" height="24">
<path d="M110.086 279.588H92.9131V302.382H110.086V279.588Z" fill="white"/>
</mask>
<g mask="url(#mask27_49_7865)">
<path opacity="0.5" d="M99.9474 279.588H92.9131V302.382H99.9474V279.588Z" fill="white"/>
</g>
<path d="M110.086 279.588H92.9131V302.382H110.086V279.588Z" stroke="#263238" stroke-width="0.714" stroke-miterlimit="10" stroke-linecap="round" stroke-linejoin="round"/>
<path d="M204.443 302.064H131.094L128.695 261.739C128.415 260.066 129.705 258.542 131.401 258.542H204.136C205.832 258.542 207.122 260.066 206.842 261.739L204.443 302.064Z" fill="#263238" stroke="#263238" stroke-width="0.714" stroke-miterlimit="10" stroke-linecap="round" stroke-linejoin="round"/>
<path d="M134.702 259.507H203.603C205.274 259.507 206.545 260.983 206.269 262.602" stroke="white" stroke-width="0.714" stroke-miterlimit="10" stroke-linecap="round" stroke-linejoin="round"/>
<path d="M129.238 261.966C129.338 260.616 130.486 259.506 131.935 259.506" stroke="white" stroke-width="0.714" stroke-miterlimit="10" stroke-linecap="round" stroke-linejoin="round"/>
<path d="M204.756 298.135H130.782V302.064H204.756V298.135Z" fill="white" stroke="#263238" stroke-width="0.714" stroke-miterlimit="10" stroke-linecap="round" stroke-linejoin="round"/>
<path d="M167.506 283.599C170.4 283.599 172.746 282.192 172.746 280.456C172.746 278.719 170.4 277.312 167.506 277.312C164.613 277.312 162.267 278.719 162.267 280.456C162.267 282.192 164.613 283.599 167.506 283.599Z" fill="white" stroke="#263238" stroke-width="0.714" stroke-miterlimit="10" stroke-linecap="round" stroke-linejoin="round"/>
<path d="M316.32 301.602H40.8174V308.294H316.32V301.602Z" fill="#263238"/>
<path d="M244.886 145.778H112.345C107.877 145.778 104.255 142.156 104.255 137.688V61.6401C104.255 57.1719 107.877 53.5498 112.345 53.5498H244.886C249.354 53.5498 252.976 57.1719 252.976 61.6401V137.688C252.976 142.156 249.354 145.778 244.886 145.778Z" fill="#006850"/>
<path d="M182.113 106.548C194.136 104.615 202.317 93.3012 200.384 81.2777C198.451 69.2542 187.138 61.074 175.114 63.0067C163.091 64.9394 154.91 76.2531 156.843 88.2765C158.776 100.3 170.09 108.48 182.113 106.548Z" fill="#263238"/>
<path d="M178.447 88.8607L171.105 98.2919C170.469 99.1572 169.692 99.5899 168.773 99.5899C168.11 99.5899 167.538 99.3636 167.059 98.9102C166.579 98.4575 166.339 97.8928 166.339 97.2166C166.339 96.5811 166.582 95.9321 167.069 95.2695L175.445 84.9051L167.576 74.5414C167.198 74.0137 167.009 73.4532 167.009 72.8578C167.009 72.1145 167.286 71.4683 167.84 70.9207C168.394 70.3731 169.036 70.0989 169.767 70.0989C170.659 70.0989 171.423 70.5387 172.059 71.4176L179.157 80.7682L186.317 71.5797C187.033 70.593 187.851 70.0989 188.771 70.0989C189.407 70.0989 189.954 70.3324 190.414 70.7986C190.874 71.2648 191.104 71.816 191.104 72.4515C191.104 72.9784 190.921 73.4854 190.556 73.9723L182.158 84.7223L190.271 95.4316C190.678 95.9728 190.88 96.5333 190.88 97.1152C190.88 97.8456 190.597 98.4711 190.028 98.9916C189.46 99.5114 188.812 99.772 188.082 99.772C187.163 99.772 186.392 99.34 185.769 98.474L178.447 88.8607Z" fill="white"/>
<path d="M220.649 129.808H136.582C133.03 129.808 130.151 126.928 130.151 123.376C130.151 119.824 133.03 116.945 136.582 116.945H220.649C224.201 116.945 227.08 119.824 227.08 123.376C227.081 126.928 224.201 129.808 220.649 129.808Z" fill="white"/>
<path d="M148.098 125.448C147.982 125.448 147.881 125.405 147.795 125.319C147.709 125.233 147.666 125.128 147.666 125.003C147.666 124.909 147.694 124.812 147.75 124.713L148.388 123.714L147.08 123.753C146.938 123.753 146.828 123.71 146.751 123.623C146.674 123.538 146.635 123.434 146.635 123.314C146.635 123.194 146.674 123.091 146.751 123.005C146.828 122.919 146.938 122.877 147.08 122.877L148.368 122.915L147.763 121.955C147.699 121.838 147.666 121.734 147.666 121.639C147.666 121.51 147.709 121.403 147.798 121.317C147.886 121.232 147.989 121.189 148.104 121.189C148.268 121.189 148.394 121.271 148.484 121.434L149.109 122.555L149.709 121.479C149.825 121.285 149.969 121.189 150.141 121.189C150.257 121.189 150.357 121.23 150.44 121.314C150.525 121.398 150.566 121.502 150.566 121.627C150.566 121.722 150.538 121.816 150.483 121.911L149.851 122.916L151.159 122.877C151.301 122.877 151.411 122.92 151.489 123.006C151.566 123.092 151.605 123.195 151.605 123.315C151.605 123.436 151.566 123.539 151.489 123.624C151.411 123.71 151.301 123.753 151.159 123.753L149.838 123.715L150.425 124.63C150.498 124.759 150.535 124.879 150.535 124.991C150.535 125.12 150.493 125.226 150.409 125.31C150.325 125.394 150.228 125.436 150.116 125.436C149.944 125.436 149.806 125.343 149.704 125.159L149.11 124.108L148.517 125.159C148.414 125.351 148.274 125.448 148.098 125.448Z" fill="black"/>
<path d="M154.653 125.448C154.537 125.448 154.436 125.405 154.35 125.319C154.264 125.233 154.221 125.128 154.221 125.003C154.221 124.909 154.249 124.812 154.305 124.713L154.943 123.714L153.635 123.753C153.492 123.753 153.383 123.71 153.306 123.623C153.229 123.538 153.19 123.434 153.19 123.314C153.19 123.194 153.229 123.091 153.306 123.005C153.383 122.919 153.493 122.877 153.635 122.877L154.923 122.915L154.318 121.955C154.254 121.838 154.221 121.734 154.221 121.639C154.221 121.51 154.265 121.403 154.354 121.317C154.441 121.232 154.543 121.189 154.659 121.189C154.823 121.189 154.95 121.271 155.04 121.434L155.665 122.555L156.264 121.479C156.381 121.285 156.525 121.189 156.696 121.189C156.813 121.189 156.912 121.23 156.996 121.314C157.08 121.398 157.122 121.502 157.122 121.627C157.122 121.722 157.093 121.816 157.037 121.911L156.406 122.916L157.715 122.877C157.857 122.877 157.966 122.92 158.044 123.006C158.121 123.092 158.16 123.195 158.16 123.315C158.16 123.436 158.121 123.539 158.044 123.624C157.967 123.71 157.857 123.753 157.715 123.753L156.394 123.715L156.98 124.63C157.054 124.759 157.09 124.879 157.09 124.991C157.09 125.12 157.049 125.226 156.965 125.31C156.88 125.394 156.783 125.436 156.671 125.436C156.499 125.436 156.362 125.343 156.258 125.159L155.666 124.108L155.073 125.159C154.968 125.351 154.83 125.448 154.653 125.448Z" fill="black"/>
<path d="M161.207 125.448C161.091 125.448 160.99 125.405 160.904 125.319C160.818 125.233 160.775 125.128 160.775 125.003C160.775 124.909 160.803 124.812 160.859 124.713L161.497 123.714L160.188 123.753C160.046 123.753 159.937 123.71 159.859 123.623C159.782 123.538 159.744 123.434 159.744 123.314C159.744 123.194 159.782 123.091 159.859 123.005C159.936 122.919 160.046 122.877 160.188 122.877L161.477 122.915L160.871 121.955C160.807 121.838 160.774 121.734 160.774 121.639C160.774 121.51 160.818 121.403 160.906 121.317C160.994 121.232 161.097 121.189 161.212 121.189C161.376 121.189 161.503 121.271 161.593 121.434L162.218 122.555L162.817 121.479C162.934 121.285 163.077 121.189 163.249 121.189C163.366 121.189 163.465 121.23 163.549 121.314C163.634 121.398 163.675 121.502 163.675 121.627C163.675 121.722 163.646 121.816 163.591 121.911L162.96 122.916L164.268 122.877C164.41 122.877 164.52 122.92 164.597 123.006C164.674 123.092 164.712 123.195 164.712 123.315C164.712 123.436 164.674 123.539 164.597 123.624C164.52 123.71 164.41 123.753 164.268 123.753L162.947 123.715L163.534 124.63C163.607 124.759 163.643 124.879 163.643 124.991C163.643 125.12 163.601 125.226 163.517 125.31C163.433 125.394 163.336 125.436 163.224 125.436C163.052 125.436 162.915 125.343 162.812 125.159L162.219 124.108L161.626 125.159C161.522 125.351 161.383 125.448 161.207 125.448Z" fill="black"/>
<path d="M167.762 125.448C167.646 125.448 167.545 125.405 167.459 125.319C167.373 125.233 167.33 125.128 167.33 125.003C167.33 124.909 167.358 124.812 167.414 124.713L168.052 123.714L166.744 123.753C166.602 123.753 166.492 123.71 166.415 123.623C166.338 123.538 166.299 123.434 166.299 123.314C166.299 123.194 166.338 123.091 166.415 123.005C166.492 122.919 166.602 122.877 166.744 122.877L168.032 122.915L167.427 121.955C167.363 121.838 167.33 121.734 167.33 121.639C167.33 121.51 167.373 121.403 167.461 121.317C167.549 121.232 167.652 121.189 167.768 121.189C167.932 121.189 168.058 121.271 168.148 121.434L168.774 122.555L169.373 121.479C169.489 121.285 169.632 121.189 169.805 121.189C169.92 121.189 170.02 121.23 170.104 121.314C170.188 121.398 170.229 121.502 170.229 121.627C170.229 121.722 170.202 121.816 170.146 121.911L169.514 122.916L170.823 122.877C170.965 122.877 171.074 122.92 171.151 123.006C171.228 123.092 171.268 123.195 171.268 123.315C171.268 123.436 171.228 123.539 171.151 123.624C171.074 123.71 170.964 123.753 170.823 123.753L169.501 123.715L170.087 124.63C170.161 124.759 170.197 124.879 170.197 124.991C170.197 125.12 170.156 125.226 170.072 125.31C169.988 125.394 169.89 125.436 169.778 125.436C169.607 125.436 169.469 125.343 169.366 125.159L168.773 124.108L168.18 125.159C168.078 125.351 167.938 125.448 167.762 125.448Z" fill="black"/>
<path d="M174.317 125.448C174.2 125.448 174.1 125.405 174.013 125.319C173.928 125.233 173.884 125.128 173.884 125.003C173.884 124.909 173.913 124.812 173.968 124.713L174.607 123.714L173.298 123.753C173.156 123.753 173.047 123.71 172.969 123.623C172.892 123.538 172.853 123.434 172.853 123.314C172.853 123.194 172.892 123.091 172.969 123.005C173.046 122.919 173.156 122.877 173.298 122.877L174.587 122.915L173.98 121.955C173.916 121.838 173.883 121.734 173.883 121.639C173.883 121.51 173.928 121.403 174.016 121.317C174.104 121.232 174.206 121.189 174.322 121.189C174.485 121.189 174.612 121.271 174.702 121.434L175.328 122.555L175.927 121.479C176.043 121.285 176.187 121.189 176.359 121.189C176.475 121.189 176.574 121.23 176.659 121.314C176.743 121.398 176.784 121.502 176.784 121.627C176.784 121.722 176.756 121.816 176.7 121.911L176.069 122.916L177.378 122.877C177.52 122.877 177.629 122.92 177.706 123.006C177.783 123.092 177.822 123.195 177.822 123.315C177.822 123.436 177.783 123.539 177.706 123.624C177.629 123.71 177.519 123.753 177.378 123.753L176.056 123.715L176.642 124.63C176.716 124.759 176.752 124.879 176.752 124.991C176.752 125.12 176.711 125.226 176.627 125.31C176.542 125.394 176.445 125.436 176.333 125.436C176.161 125.436 176.024 125.343 175.92 125.159L175.328 124.108L174.734 125.159C174.632 125.351 174.493 125.448 174.317 125.448Z" fill="black"/>
<path d="M180.871 125.448C180.755 125.448 180.654 125.405 180.568 125.319C180.481 125.233 180.439 125.128 180.439 125.003C180.439 124.909 180.467 124.812 180.523 124.713L181.161 123.714L179.853 123.753C179.71 123.753 179.601 123.71 179.524 123.623C179.447 123.538 179.408 123.434 179.408 123.314C179.408 123.194 179.447 123.091 179.524 123.005C179.601 122.919 179.711 122.877 179.853 122.877L181.141 122.915L180.536 121.955C180.472 121.838 180.439 121.734 180.439 121.639C180.439 121.51 180.483 121.403 180.571 121.317C180.659 121.232 180.761 121.189 180.877 121.189C181.04 121.189 181.167 121.271 181.257 121.434L181.883 122.555L182.482 121.479C182.598 121.285 182.743 121.189 182.914 121.189C183.03 121.189 183.13 121.23 183.214 121.314C183.298 121.398 183.339 121.502 183.339 121.627C183.339 121.722 183.311 121.816 183.255 121.911L182.624 122.916L183.933 122.877C184.075 122.877 184.184 122.92 184.262 123.006C184.339 123.092 184.378 123.195 184.378 123.315C184.378 123.436 184.339 123.539 184.262 123.624C184.185 123.71 184.075 123.753 183.933 123.753L182.612 123.715L183.198 124.63C183.272 124.759 183.308 124.879 183.308 124.991C183.308 125.12 183.267 125.226 183.182 125.31C183.099 125.394 183.001 125.436 182.889 125.436C182.717 125.436 182.58 125.343 182.477 125.159L181.884 124.108L181.291 125.159C181.187 125.351 181.048 125.448 180.871 125.448Z" fill="black"/>
<path d="M187.426 125.448C187.309 125.448 187.209 125.405 187.122 125.319C187.036 125.233 186.994 125.128 186.994 125.003C186.994 124.909 187.021 124.812 187.077 124.713L187.716 123.714L186.407 123.753C186.265 123.753 186.156 123.71 186.078 123.623C186.001 123.538 185.962 123.434 185.962 123.314C185.962 123.194 186.001 123.091 186.078 123.005C186.155 122.919 186.265 122.877 186.407 122.877L187.696 122.915L187.089 121.955C187.025 121.838 186.993 121.734 186.993 121.639C186.993 121.51 187.036 121.403 187.125 121.317C187.213 121.232 187.316 121.189 187.431 121.189C187.594 121.189 187.721 121.271 187.811 121.434L188.437 122.555L189.036 121.479C189.152 121.285 189.296 121.189 189.468 121.189C189.584 121.189 189.684 121.23 189.768 121.314C189.852 121.398 189.893 121.502 189.893 121.627C189.893 121.722 189.865 121.816 189.809 121.911L189.178 122.916L190.487 122.877C190.629 122.877 190.738 122.92 190.815 123.006C190.892 123.092 190.931 123.195 190.931 123.315C190.931 123.436 190.892 123.539 190.815 123.624C190.738 123.71 190.628 123.753 190.487 123.753L189.166 123.715L189.752 124.63C189.825 124.759 189.861 124.879 189.861 124.991C189.861 125.12 189.82 125.226 189.735 125.31C189.652 125.394 189.554 125.436 189.442 125.436C189.27 125.436 189.133 125.343 189.03 125.159L188.437 124.108L187.843 125.159C187.742 125.351 187.602 125.448 187.426 125.448Z" fill="black"/>
<path d="M193.981 125.448C193.864 125.448 193.764 125.405 193.677 125.319C193.591 125.233 193.549 125.128 193.549 125.003C193.549 124.909 193.577 124.812 193.632 124.713L194.271 123.714L192.962 123.753C192.821 123.753 192.711 123.71 192.633 123.623C192.556 123.538 192.517 123.434 192.517 123.314C192.517 123.194 192.556 123.091 192.633 123.005C192.711 122.919 192.821 122.877 192.962 122.877L194.251 122.915L193.645 121.955C193.582 121.838 193.549 121.734 193.549 121.639C193.549 121.51 193.592 121.403 193.681 121.317C193.769 121.232 193.872 121.189 193.987 121.189C194.151 121.189 194.278 121.271 194.368 121.434L194.993 122.555L195.592 121.479C195.709 121.285 195.853 121.189 196.024 121.189C196.141 121.189 196.241 121.23 196.324 121.314C196.408 121.398 196.45 121.502 196.45 121.627C196.45 121.722 196.422 121.816 196.366 121.911L195.734 122.916L197.043 122.877C197.185 122.877 197.294 122.92 197.372 123.006C197.45 123.092 197.488 123.195 197.488 123.315C197.488 123.436 197.449 123.539 197.372 123.624C197.295 123.71 197.185 123.753 197.043 123.753L195.722 123.715L196.308 124.63C196.382 124.759 196.418 124.879 196.418 124.991C196.418 125.12 196.377 125.226 196.293 125.31C196.209 125.394 196.111 125.436 195.999 125.436C195.827 125.436 195.69 125.343 195.587 125.159L194.994 124.108L194.401 125.159C194.296 125.351 194.156 125.448 193.981 125.448Z" fill="black"/>
<path d="M200.535 125.448C200.419 125.448 200.318 125.405 200.232 125.319C200.146 125.233 200.103 125.128 200.103 125.003C200.103 124.909 200.131 124.812 200.187 124.713L200.825 123.714L199.517 123.753C199.375 123.753 199.266 123.71 199.188 123.623C199.111 123.538 199.072 123.434 199.072 123.314C199.072 123.194 199.111 123.091 199.188 123.005C199.265 122.919 199.375 122.877 199.517 122.877L200.805 122.915L200.199 121.955C200.135 121.838 200.103 121.734 200.103 121.639C200.103 121.51 200.146 121.403 200.235 121.317C200.323 121.232 200.426 121.189 200.54 121.189C200.704 121.189 200.831 121.271 200.921 121.434L201.547 122.555L202.146 121.479C202.262 121.285 202.405 121.189 202.577 121.189C202.693 121.189 202.793 121.23 202.877 121.314C202.961 121.398 203.002 121.502 203.002 121.627C203.002 121.722 202.974 121.816 202.918 121.911L202.287 122.916L203.596 122.877C203.738 122.877 203.847 122.92 203.924 123.006C204.001 123.092 204.04 123.195 204.04 123.315C204.04 123.436 204.001 123.539 203.924 123.624C203.847 123.71 203.737 123.753 203.596 123.753L202.275 123.715L202.861 124.63C202.935 124.759 202.971 124.879 202.971 124.991C202.971 125.12 202.93 125.226 202.845 125.31C202.762 125.394 202.664 125.436 202.553 125.436C202.38 125.436 202.243 125.343 202.141 125.159L201.547 124.108L200.954 125.159C200.851 125.351 200.711 125.448 200.535 125.448Z" fill="black"/>
<path d="M207.09 125.448C206.974 125.448 206.873 125.405 206.787 125.319C206.701 125.233 206.658 125.128 206.658 125.003C206.658 124.909 206.686 124.812 206.742 124.713L207.38 123.714L206.072 123.753C205.931 123.753 205.822 123.71 205.744 123.623C205.667 123.538 205.627 123.434 205.627 123.314C205.627 123.194 205.667 123.091 205.744 123.005C205.821 122.919 205.931 122.877 206.072 122.877L207.361 122.915L206.755 121.955C206.691 121.838 206.658 121.734 206.658 121.639C206.658 121.51 206.702 121.403 206.791 121.317C206.878 121.232 206.981 121.189 207.096 121.189C207.26 121.189 207.387 121.271 207.477 121.434L208.102 122.555L208.701 121.479C208.818 121.285 208.961 121.189 209.133 121.189C209.25 121.189 209.35 121.23 209.433 121.314C209.517 121.398 209.559 121.502 209.559 121.627C209.559 121.722 209.53 121.816 209.474 121.911L208.843 122.916L210.152 122.877C210.294 122.877 210.403 122.92 210.48 123.006C210.558 123.092 210.596 123.195 210.596 123.315C210.596 123.436 210.558 123.539 210.48 123.624C210.403 123.71 210.293 123.753 210.152 123.753L208.831 123.715L209.417 124.63C209.491 124.759 209.527 124.879 209.527 124.991C209.527 125.12 209.485 125.226 209.401 125.31C209.317 125.394 209.22 125.436 209.107 125.436C208.935 125.436 208.798 125.343 208.695 125.159L208.102 124.108L207.509 125.159C207.406 125.351 207.266 125.448 207.09 125.448Z" fill="black"/>
<path d="M229.523 141.245H238.251" stroke="white" stroke-width="2.142" stroke-miterlimit="10" stroke-linecap="round" stroke-linejoin="round"/>
<path d="M108.405 76.9463V134.909C108.405 138.408 111.242 141.245 114.741 141.245H221.237" stroke="white" stroke-width="2.142" stroke-miterlimit="10" stroke-linecap="round" stroke-linejoin="round"/>
<path d="M108.405 61.5667V70.2639" stroke="white" stroke-width="2.142" stroke-miterlimit="10" stroke-linecap="round" stroke-linejoin="round"/>
</svg>
