<svg width="24" height="24" viewBox="0 0 24 24" fill="none" xmlns="http://www.w3.org/2000/svg">
<path d="M12 2C6.47254 2 2 6.47293 2 12C2 17.5275 6.47293 22 12 22C17.5275 22 22 17.5271 22 12C22 6.47254 17.527 2 12 2ZM12 20.4375C7.33621 20.4375 3.5625 16.6635 3.5625 12C3.5625 7.33621 7.33652 3.5625 12 3.5625C16.6638 3.5625 20.4375 7.33652 20.4375 12C20.4375 16.6638 16.6634 20.4375 12 20.4375Z" fill="#ED459A"/>
<path d="M12 10.3723C11.5685 10.3723 11.2188 10.7221 11.2188 11.1535V16.1845C11.2188 16.616 11.5685 16.9658 12 16.9658C12.4315 16.9658 12.7812 16.616 12.7812 16.1845V11.1535C12.7812 10.7221 12.4315 10.3723 12 10.3723Z" fill="#ED459A"/>
<path d="M12 9.41566C12.5825 9.41566 13.0547 8.94346 13.0547 8.36098C13.0547 7.77849 12.5825 7.30629 12 7.30629C11.4175 7.30629 10.9453 7.77849 10.9453 8.36098C10.9453 8.94346 11.4175 9.41566 12 9.41566Z" fill="#ED459A"/>
</svg>
