<svg width="47" height="33" viewBox="0 0 47 33" fill="none" xmlns="http://www.w3.org/2000/svg">
<path fill-rule="evenodd" clip-rule="evenodd" d="M23.809 6.00562C21.8343 5.93551 19.8885 6.52243 18.2456 7.68377C16.3984 8.99051 15.0455 10.9444 14.4248 13.2019C14.2568 13.1802 14.0555 13.1898 13.8165 13.2613C12.9242 13.5295 12.2534 14.3028 11.9517 14.9841C11.56 15.8721 11.395 17.0467 11.5691 18.2587C11.742 19.4672 12.2245 20.4633 12.828 21.0818C13.4333 21.7006 14.1167 21.9017 14.7957 21.7507C15.8066 21.5224 16.3078 21.3516 16.1662 20.3554L15.4813 15.5247C15.5508 14.2099 15.9083 12.9303 16.5256 11.7868C17.1428 10.6434 18.0028 9.66738 19.0377 8.93599C20.4324 7.94872 22.0846 7.44903 23.7617 7.50722C25.4389 7.56541 27.0565 8.17856 28.3871 9.26038C29.3058 10.0056 30.0612 10.9524 30.6016 12.0356C31.142 13.1188 31.4545 14.3128 31.5178 15.5359L31.0386 18.9148C30.5187 20.4228 29.6054 21.744 28.4046 22.725C27.2038 23.7061 25.7647 24.3068 24.2544 24.4576H22.2127C22.0878 24.4573 21.964 24.4831 21.8485 24.5335C21.7331 24.5839 21.6281 24.658 21.5398 24.7514C21.4514 24.8449 21.3813 24.9559 21.3336 25.078C21.2859 25.2002 21.2614 25.3311 21.2616 25.4633V25.9939C21.2614 26.1262 21.2858 26.2571 21.3335 26.3793C21.3812 26.5015 21.4513 26.6125 21.5397 26.706C21.628 26.7995 21.733 26.8736 21.8485 26.924C21.964 26.9745 22.0878 27.0003 22.2127 27H24.7869C24.9118 27.0002 25.0354 26.9743 25.1507 26.9238C25.266 26.8733 25.3708 26.7992 25.459 26.7058C25.5472 26.6123 25.617 26.5014 25.6646 26.3793C25.7121 26.2572 25.7363 26.1263 25.736 25.9943V25.7165C28.0488 25.1173 30.0637 23.6188 31.3799 21.5192L32.2046 21.7507C32.8757 21.9349 33.5673 21.7002 34.1723 21.0818C34.7758 20.463 35.258 19.4672 35.4312 18.2587C35.6062 17.0464 35.436 15.874 35.0492 14.9841C34.6608 14.0943 34.0824 13.5292 33.4146 13.3264C33.1349 13.2412 32.8313 13.2099 32.5709 13.2019C32.0104 11.1601 30.8486 9.36094 29.2547 8.06627C27.6878 6.79357 25.7832 6.07286 23.809 6.00562Z" fill="white"/>
<path fill-rule="evenodd" clip-rule="evenodd" d="M26.8206 14.6958C27.1476 14.6962 27.4611 14.8338 27.6923 15.0785C27.9235 15.3232 28.0536 15.655 28.0539 16.001C28.0533 16.347 27.9232 16.6786 27.692 16.9233C27.4607 17.1679 27.1473 17.3056 26.8203 17.3062C26.493 17.3063 26.179 17.1689 25.9473 16.9241C25.7157 16.6794 25.5853 16.3473 25.5849 16.001C25.585 15.8294 25.617 15.6596 25.6792 15.5011C25.7413 15.3426 25.8323 15.1987 25.947 15.0774C26.0618 14.9562 26.1979 14.8601 26.3478 14.7945C26.4976 14.729 26.6582 14.6953 26.8203 14.6954L26.8206 14.6958ZM23.4983 14.6958C23.7423 14.6959 23.9807 14.7725 24.1835 14.916C24.3862 15.0595 24.5443 15.2634 24.6375 15.5019C24.7308 15.7404 24.7552 16.0028 24.7075 16.2559C24.6599 16.509 24.5424 16.7415 24.3699 16.924C24.1974 17.1065 23.9776 17.2308 23.7384 17.2811C23.4991 17.3315 23.2511 17.3056 23.0257 17.2069C22.8004 17.1081 22.6077 16.9409 22.4722 16.7263C22.3366 16.5117 22.2642 16.2594 22.2642 16.0013C22.264 15.8298 22.2958 15.6599 22.3578 15.5014C22.4198 15.3429 22.5107 15.1988 22.6253 15.0775C22.7399 14.9562 22.8761 14.8601 23.0259 14.7945C23.1757 14.7289 23.3362 14.6956 23.4983 14.6958ZM20.177 14.6958C20.3413 14.6919 20.5046 14.7228 20.6575 14.7867C20.8103 14.8506 20.9496 14.9461 21.067 15.0677C21.1845 15.1893 21.2778 15.3344 21.3416 15.4947C21.4053 15.655 21.4381 15.8271 21.4381 16.001C21.4381 16.1749 21.4053 16.347 21.3416 16.5073C21.2778 16.6675 21.1845 16.8127 21.067 16.9343C20.9496 17.0559 20.8103 17.1514 20.6575 17.2153C20.5046 17.2791 20.3413 17.31 20.177 17.3062C19.8531 17.3008 19.5442 17.161 19.317 16.9167C19.0898 16.6725 18.9624 16.3435 18.9624 16.0008C18.9624 15.6581 19.0898 15.3291 19.317 15.0849C19.5442 14.8407 19.8531 14.7011 20.177 14.6958ZM23.4983 9.08789C19.8804 9.08789 16.9648 12.0713 16.9648 16.0007C16.9648 17.8879 17.6393 19.5559 18.7379 20.7797L18.3481 22.6289C18.2195 23.2375 18.6184 23.6468 19.1356 23.3422L20.842 22.3349C21.6805 22.719 22.5847 22.9162 23.4983 22.9141C27.1175 22.9141 30.0312 19.9326 30.0312 16.0016C30.0312 12.0719 27.1175 9.08853 23.4983 9.08853V9.08789Z" fill="white"/>
</svg>
