<svg width="46" height="33" viewBox="0 0 46 33" fill="none" xmlns="http://www.w3.org/2000/svg">
<rect y="0.5" width="46" height="32" rx="8" fill="white"/>
<path fill-rule="evenodd" clip-rule="evenodd" d="M23.309 6.00562C21.3343 5.93551 19.3885 6.52243 17.7456 7.68377C15.8984 8.99051 14.5455 10.9444 13.9248 13.2019C13.7568 13.1802 13.5555 13.1898 13.3165 13.2613C12.4242 13.5295 11.7534 14.3028 11.4517 14.9841C11.06 15.8721 10.895 17.0467 11.0691 18.2587C11.242 19.4672 11.7245 20.4633 12.328 21.0818C12.9333 21.7006 13.6167 21.9017 14.2957 21.7507C15.3066 21.5224 15.8078 21.3516 15.6662 20.3554L14.9813 15.5247C15.0508 14.2099 15.4083 12.9303 16.0256 11.7868C16.6428 10.6434 17.5028 9.66738 18.5377 8.93599C19.9324 7.94872 21.5846 7.44903 23.2617 7.50722C24.9389 7.56541 26.5565 8.17856 27.8871 9.26038C28.8058 10.0056 29.5612 10.9524 30.1016 12.0356C30.642 13.1188 30.9545 14.3128 31.0178 15.5359L30.5386 18.9148C30.0187 20.4228 29.1054 21.744 27.9046 22.725C26.7038 23.7061 25.2647 24.3068 23.7544 24.4576H21.7127C21.5878 24.4573 21.464 24.4831 21.3485 24.5335C21.2331 24.5839 21.1281 24.658 21.0398 24.7514C20.9514 24.8449 20.8813 24.9559 20.8336 25.078C20.7859 25.2002 20.7614 25.3311 20.7616 25.4633V25.9939C20.7614 26.1262 20.7858 26.2571 20.8335 26.3793C20.8812 26.5015 20.9513 26.6125 21.0397 26.706C21.128 26.7995 21.233 26.8736 21.3485 26.924C21.464 26.9745 21.5878 27.0003 21.7127 27H24.2869C24.4118 27.0002 24.5354 26.9743 24.6507 26.9238C24.766 26.8733 24.8708 26.7992 24.959 26.7058C25.0472 26.6123 25.117 26.5014 25.1646 26.3793C25.2121 26.2572 25.2363 26.1263 25.236 25.9943V25.7165C27.5488 25.1173 29.5637 23.6188 30.8799 21.5192L31.7046 21.7507C32.3757 21.9349 33.0673 21.7002 33.6723 21.0818C34.2758 20.463 34.758 19.4672 34.9312 18.2587C35.1062 17.0464 34.936 15.874 34.5492 14.9841C34.1608 14.0943 33.5824 13.5292 32.9146 13.3264C32.6349 13.2412 32.3313 13.2099 32.0709 13.2019C31.5104 11.1601 30.3486 9.36094 28.7547 8.06627C27.1878 6.79357 25.2832 6.07286 23.309 6.00562Z" fill="#1C1F5E"/>
<path fill-rule="evenodd" clip-rule="evenodd" d="M26.3206 14.6958C26.6476 14.6962 26.9611 14.8338 27.1923 15.0785C27.4235 15.3232 27.5536 15.655 27.5539 16.001C27.5533 16.347 27.4232 16.6786 27.192 16.9233C26.9607 17.1679 26.6473 17.3056 26.3203 17.3062C25.993 17.3063 25.679 17.1689 25.4473 16.9241C25.2157 16.6794 25.0853 16.3473 25.0849 16.001C25.085 15.8294 25.117 15.6596 25.1792 15.5011C25.2413 15.3426 25.3323 15.1987 25.447 15.0774C25.5618 14.9562 25.6979 14.8601 25.8478 14.7945C25.9976 14.729 26.1582 14.6953 26.3203 14.6954L26.3206 14.6958ZM22.9983 14.6958C23.2423 14.6959 23.4807 14.7725 23.6835 14.916C23.8862 15.0595 24.0443 15.2634 24.1375 15.5019C24.2308 15.7404 24.2552 16.0028 24.2075 16.2559C24.1599 16.509 24.0424 16.7415 23.8699 16.924C23.6974 17.1065 23.4776 17.2308 23.2384 17.2811C22.9991 17.3315 22.7511 17.3056 22.5257 17.2069C22.3004 17.1081 22.1077 16.9409 21.9722 16.7263C21.8366 16.5117 21.7642 16.2594 21.7642 16.0013C21.764 15.8298 21.7958 15.6599 21.8578 15.5014C21.9198 15.3429 22.0107 15.1988 22.1253 15.0775C22.2399 14.9562 22.3761 14.8601 22.5259 14.7945C22.6757 14.7289 22.8362 14.6956 22.9983 14.6958ZM19.677 14.6958C19.8413 14.6919 20.0046 14.7228 20.1575 14.7867C20.3103 14.8506 20.4496 14.9461 20.567 15.0677C20.6845 15.1893 20.7778 15.3344 20.8416 15.4947C20.9053 15.655 20.9381 15.8271 20.9381 16.001C20.9381 16.1749 20.9053 16.347 20.8416 16.5073C20.7778 16.6675 20.6845 16.8127 20.567 16.9343C20.4496 17.0559 20.3103 17.1514 20.1575 17.2153C20.0046 17.2791 19.8413 17.31 19.677 17.3062C19.3531 17.3008 19.0442 17.161 18.817 16.9167C18.5898 16.6725 18.4624 16.3435 18.4624 16.0008C18.4624 15.6581 18.5898 15.3291 18.817 15.0849C19.0442 14.8407 19.3531 14.7011 19.677 14.6958ZM22.9983 9.08789C19.3804 9.08789 16.4648 12.0713 16.4648 16.0007C16.4648 17.8879 17.1393 19.5559 18.2379 20.7797L17.8481 22.6289C17.7195 23.2375 18.1184 23.6468 18.6356 23.3422L20.342 22.3349C21.1805 22.719 22.0847 22.9162 22.9983 22.9141C26.6175 22.9141 29.5312 19.9326 29.5312 16.0016C29.5312 12.0719 26.6175 9.08853 22.9983 9.08853V9.08789Z" fill="#1C1F5E"/>
</svg>
