<svg width="25" height="24" viewBox="0 0 25 24" fill="none" xmlns="http://www.w3.org/2000/svg">
<path fill-rule="evenodd" clip-rule="evenodd" d="M1.625 12C1.625 6.06294 6.43794 1.25 12.375 1.25C18.3121 1.25 23.125 6.06294 23.125 12C23.125 17.9371 18.3121 22.75 12.375 22.75C6.43794 22.75 1.625 17.9371 1.625 12ZM12.7764 8.29796L15.6963 7.32465C16.5825 7.02924 17.0257 6.88153 17.2596 7.11544C17.4935 7.34935 17.3458 7.79246 17.0504 8.6787L16.077 11.5986C15.5736 13.1088 15.3219 13.8639 14.7804 14.4054C14.2389 14.9469 13.4838 15.1986 11.9736 15.702L9.05371 16.6753C8.16747 16.9708 7.72435 17.1185 7.49044 16.8846C7.25653 16.6507 7.40424 16.2075 7.69965 15.3213L8.67296 12.4014C9.17636 10.8912 9.42806 10.1361 9.96957 9.59457C10.5111 9.05306 11.2662 8.80136 12.7764 8.29796ZM13.083 11.292C13.4723 11.6813 13.4723 12.3124 13.083 12.7017L13.0767 12.708C12.6874 13.0973 12.0563 13.0973 11.667 12.708C11.2777 12.3187 11.2777 11.6876 11.667 11.2983L11.6733 11.292C12.0626 10.9027 12.6937 10.9027 13.083 11.292Z" fill="#006850"/>
</svg>
