<svg width="25" height="24" viewBox="0 0 25 24" fill="none" xmlns="http://www.w3.org/2000/svg">
<path d="M17.375 3.56V2C17.375 1.59 17.035 1.25 16.625 1.25C16.215 1.25 15.875 1.59 15.875 2V3.5H9.37501V2C9.37501 1.59 9.03501 1.25 8.62501 1.25C8.21501 1.25 7.87501 1.59 7.87501 2V3.56C5.17501 3.81 3.86502 5.42 3.66502 7.81C3.64502 8.1 3.88502 8.34 4.16502 8.34H21.085C21.375 8.34 21.615 8.09 21.585 7.81C21.385 5.42 20.075 3.81 17.375 3.56Z" fill="#006850"/>
<path opacity="0.4" d="M20.625 9.84009C21.175 9.84009 21.625 10.2901 21.625 10.8401V17.0001C21.625 20.0001 20.125 22.0001 16.625 22.0001H8.625C5.125 22.0001 3.625 20.0001 3.625 17.0001V10.8401C3.625 10.2901 4.075 9.84009 4.625 9.84009H20.625Z" fill="#006850"/>
<path d="M9.125 14.9999C8.995 14.9999 8.865 14.9699 8.745 14.9199C8.625 14.8699 8.51501 14.7999 8.41501 14.7099C8.32501 14.6099 8.25499 14.4999 8.20499 14.3799C8.15499 14.2599 8.125 14.1299 8.125 13.9999C8.125 13.8699 8.15499 13.7399 8.20499 13.6199C8.25499 13.4999 8.32501 13.3899 8.41501 13.2899C8.51501 13.1999 8.625 13.1299 8.745 13.0799C8.985 12.9799 9.265 12.9799 9.505 13.0799C9.625 13.1299 9.73499 13.1999 9.83499 13.2899C9.92499 13.3899 9.99501 13.4999 10.045 13.6199C10.095 13.7399 10.125 13.8699 10.125 13.9999C10.125 14.1299 10.095 14.2599 10.045 14.3799C9.99501 14.4999 9.92499 14.6099 9.83499 14.7099C9.73499 14.7999 9.625 14.8699 9.505 14.9199C9.385 14.9699 9.255 14.9999 9.125 14.9999Z" fill="#006850"/>
<path d="M12.625 15.0001C12.495 15.0001 12.365 14.9701 12.245 14.9201C12.125 14.8701 12.015 14.8001 11.915 14.7101C11.735 14.5201 11.625 14.2601 11.625 14.0001C11.625 13.7401 11.735 13.4801 11.915 13.2901C12.015 13.2001 12.125 13.1301 12.245 13.0801C12.485 12.9701 12.765 12.9701 13.005 13.0801C13.125 13.1301 13.235 13.2001 13.335 13.2901C13.515 13.4801 13.625 13.7401 13.625 14.0001C13.625 14.2601 13.515 14.5201 13.335 14.7101C13.235 14.8001 13.125 14.8701 13.005 14.9201C12.885 14.9701 12.755 15.0001 12.625 15.0001Z" fill="#006850"/>
<path d="M9.125 18.4999C8.995 18.4999 8.865 18.4699 8.745 18.4199C8.625 18.3699 8.51501 18.2999 8.41501 18.2099C8.23501 18.0199 8.125 17.7599 8.125 17.4999C8.125 17.2399 8.23501 16.9799 8.41501 16.7899C8.51501 16.6999 8.625 16.6299 8.745 16.5799C8.985 16.4799 9.265 16.4799 9.505 16.5799C9.625 16.6299 9.73499 16.6999 9.83499 16.7899C10.015 16.9799 10.125 17.2399 10.125 17.4999C10.125 17.7599 10.015 18.0199 9.83499 18.2099C9.73499 18.2999 9.625 18.3699 9.505 18.4199C9.385 18.4699 9.255 18.4999 9.125 18.4999Z" fill="#006850"/>
</svg>
