<svg width="11" height="13" viewBox="0 0 11 13" fill="none" xmlns="http://www.w3.org/2000/svg">
<path d="M7.4841 8.36775L7.48419 8.36777C8.37733 8.54911 9.08191 8.84357 9.56107 9.21292C10.0392 9.58146 10.288 10.0199 10.288 10.4953C10.288 11.2314 9.72735 11.8087 8.83856 12.2066C7.95328 12.6028 6.76872 12.8071 5.58544 12.8071C4.40216 12.8071 3.2176 12.6028 2.33232 12.2066C1.44353 11.8087 0.882854 11.2314 0.882854 10.4953C0.882854 10.0199 1.13167 9.58146 1.6098 9.21292C2.08897 8.84357 2.79355 8.54911 3.68669 8.36777L3.68678 8.36775C3.96238 8.3115 4.23326 8.49062 4.28944 8.76695C4.34566 9.04347 4.1666 9.31475 3.89115 9.37101C3.23087 9.50454 2.7416 9.70113 2.41498 9.9012C2.25185 10.0011 2.12701 10.1033 2.04184 10.201C1.95876 10.2962 1.9043 10.3978 1.9043 10.4953C1.9043 10.5719 1.93471 10.6476 1.98233 10.7184C2.03027 10.7896 2.09906 10.861 2.18495 10.9309C2.35675 11.0706 2.60562 11.2114 2.92096 11.3369C3.5524 11.5883 4.4619 11.7834 5.58544 11.7834C6.70898 11.7834 7.61848 11.5883 8.24992 11.3369C8.56526 11.2114 8.81413 11.0706 8.98593 10.9309C9.07181 10.861 9.14061 10.7896 9.18855 10.7184C9.23617 10.6476 9.26658 10.5719 9.26658 10.4953C9.26658 10.399 9.21173 10.298 9.12895 10.2034C9.04386 10.1061 8.91913 10.0038 8.75603 9.90353C8.42944 9.70271 7.94013 9.50455 7.27965 9.37099L7.26218 9.45736L7.2798 9.37103C7.00431 9.3148 6.82521 9.04349 6.88144 8.76695C6.93762 8.49062 7.20849 8.3115 7.4841 8.36775Z" fill="#006850" stroke="white" stroke-width="0.176231"/>
<path d="M5.0743 6.83499V6.76321L5.00401 6.74869C3.67866 6.47497 2.67895 5.29832 2.67895 3.89512C2.67895 2.28771 3.98105 0.983379 5.58502 0.983379C7.18899 0.983379 8.4911 2.28771 8.4911 3.89512C8.4911 5.30449 7.49127 6.48082 6.1664 6.74862L6.09575 6.7629V6.83499V9.89485C6.09575 10.1763 5.86556 10.4067 5.58502 10.4067C5.30448 10.4067 5.0743 10.1763 5.0743 9.89485V6.83499ZM7.46965 3.89512C7.46965 2.85666 6.62193 2.00709 5.58502 2.00709C4.54812 2.00709 3.7004 2.85666 3.7004 3.89512C3.7004 4.93359 4.54812 5.78316 5.58502 5.78316C6.62193 5.78316 7.46965 4.93359 7.46965 3.89512Z" fill="#006850" stroke="white" stroke-width="0.176231"/>
</svg>
