<svg width="21" height="21" viewBox="0 0 21 21" fill="none" xmlns="http://www.w3.org/2000/svg">
<path opacity="0.4" d="M13.9008 2.29199H6.92577C3.89244 2.29199 2.08411 4.10032 2.08411 7.13366V14.1087C2.08411 17.142 3.89244 18.9503 6.92577 18.9503H13.9008C16.9341 18.9503 18.7424 17.142 18.7424 14.1087V7.13366C18.7424 4.10032 16.9341 2.29199 13.9008 2.29199Z" fill="#006850"/>
<path d="M12.009 8.3585L12.0507 10.8168L14.2423 10.7835C14.4007 10.7835 14.5173 10.9252 14.4923 11.0752L14.2006 12.6668C14.1756 12.7835 14.0757 12.8668 13.959 12.8752L12.084 12.9085L12.184 18.9502L9.684 18.9918L9.584 12.9502L8.16732 12.9752C8.02566 12.9752 7.91733 12.8668 7.91733 12.7252L7.89233 11.1418C7.89233 11.0002 8.00066 10.8918 8.14232 10.8918L9.559 10.8668L9.51732 8.1585C9.49232 6.77517 10.5923 5.64183 11.9757 5.61683L14.2256 5.5835C14.3673 5.5835 14.4757 5.69183 14.4757 5.8335L14.509 7.8335C14.509 7.97517 14.4007 8.0835 14.259 8.0835L12.259 8.11683C12.1173 8.1085 12.009 8.22516 12.009 8.3585Z" fill="#006850"/>
</svg>
