<svg width="13" height="11" viewBox="0 0 13 11" fill="none" xmlns="http://www.w3.org/2000/svg">
<path fill-rule="evenodd" clip-rule="evenodd" d="M4.25561 2.09049C4.25561 3.24549 3.30342 4.18165 2.1278 4.18165C0.952871 4.18165 0 3.24549 0 2.09049C0 0.93616 0.952871 0 2.1278 0C3.30342 0 4.25561 0.93616 4.25561 2.09049ZM11.4429 1.1748C11.9572 1.1748 12.3752 1.58547 12.3752 2.0907C12.3752 2.59661 11.9572 3.00727 11.4429 3.00727H7.37434C6.8594 3.00727 6.44141 2.59661 6.44141 2.0907C6.44141 1.58547 6.8594 1.1748 7.37434 1.1748H11.4429ZM0.932933 8.01758H5.00154C5.51648 8.01758 5.93447 8.42825 5.93447 8.93415C5.93447 9.43938 5.51648 9.85072 5.00154 9.85072H0.932933C0.417998 9.85072 0 9.43938 0 8.93415C0 8.42825 0.417998 8.01758 0.932933 8.01758ZM10.2469 11C11.4226 11 12.3747 10.0638 12.3747 8.90952C12.3747 7.75452 11.4226 6.81836 10.2469 6.81836C9.07201 6.81836 8.11914 7.75452 8.11914 8.90952C8.11914 10.0638 9.07201 11 10.2469 11Z" fill="#006850"/>
</svg>
