<svg width="42" height="33" viewBox="0 0 42 33" fill="none" xmlns="http://www.w3.org/2000/svg">
<rect y="0.5" width="42" height="32" rx="8" fill="white"/>
<path d="M27.6999 12.6153L22.8999 9.59276C21.5915 8.76776 19.5832 8.81276 18.3249 9.69026L14.1499 12.6228C13.3165 13.2078 12.6582 14.4078 12.6582 15.3528V20.5278C12.6582 22.4403 14.3832 24.0003 16.5082 24.0003H25.4915C27.6165 24.0003 29.3415 22.4478 29.3415 20.5353V15.4503C29.3415 14.4378 28.6165 13.1928 27.6999 12.6153ZM21.6249 21.0003C21.6249 21.3078 21.3415 21.5628 20.9999 21.5628C20.6582 21.5628 20.3749 21.3078 20.3749 21.0003V18.7503C20.3749 18.4428 20.6582 18.1878 20.9999 18.1878C21.3415 18.1878 21.6249 18.4428 21.6249 18.7503V21.0003Z" fill="#1C1F5E"/>
</svg>
