<svg width="25" height="24" viewBox="0 0 25 24" fill="none" xmlns="http://www.w3.org/2000/svg">
<path d="M20.165 6.81994L14.405 2.78994C12.835 1.68994 10.425 1.74994 8.91499 2.91994L3.90499 6.82994C2.90499 7.60994 2.11499 9.20994 2.11499 10.4699V17.3699C2.11499 19.9199 4.18499 21.9999 6.73499 21.9999H17.515C20.065 21.9999 22.135 19.9299 22.135 17.3799V10.5999C22.135 9.24994 21.265 7.58994 20.165 6.81994ZM12.875 17.9999C12.875 18.4099 12.535 18.7499 12.125 18.7499C11.715 18.7499 11.375 18.4099 11.375 17.9999V14.9999C11.375 14.5899 11.715 14.2499 12.125 14.2499C12.535 14.2499 12.875 14.5899 12.875 14.9999V17.9999Z" fill="#006850"/>
</svg>
