<svg width="25" height="24" viewBox="0 0 25 24" fill="none" xmlns="http://www.w3.org/2000/svg">
<path d="M14.1181 3.19943L14.1184 3.19962L19.8783 7.22955C19.8783 7.22957 19.8783 7.2296 19.8784 7.22962C20.3476 7.55809 20.7918 8.09665 21.1193 8.72383C21.4467 9.35104 21.635 10.0242 21.635 10.5999V17.3799C21.635 19.6538 19.7888 21.4999 17.515 21.4999H6.73499C4.46254 21.4999 2.61499 19.6452 2.61499 17.3699V10.4699C2.61499 9.9355 2.78538 9.29642 3.08357 8.6908C3.38162 8.08545 3.78606 7.55682 4.21251 7.22419L4.21261 7.2241L9.22124 3.31518C9.22145 3.31501 9.22167 3.31484 9.22189 3.31467C10.5587 2.27937 12.7278 2.22535 14.1181 3.19943Z" stroke="black"/>
<path d="M12 15V18.5" stroke="black" stroke-linecap="round"/>
</svg>
