<svg width="23" height="23" viewBox="0 0 23 23" fill="none" xmlns="http://www.w3.org/2000/svg">
<path d="M19.2042 6.7522L13.6842 3.05803C12.1796 2.0497 9.87 2.1047 8.42292 3.1772L3.62167 6.76137C2.66333 7.47637 1.90625 8.94303 1.90625 10.098V16.423C1.90625 18.7605 3.89 20.6672 6.33375 20.6672H16.6646C19.1083 20.6672 21.0921 18.7697 21.0921 16.4322V10.2172C21.0921 8.9797 20.2583 7.45803 19.2042 6.7522ZM12.2179 17.0005C12.2179 17.3764 11.8921 17.688 11.4992 17.688C11.1062 17.688 10.7804 17.3764 10.7804 17.0005V14.2505C10.7804 13.8747 11.1062 13.563 11.4992 13.563C11.8921 13.563 12.2179 13.8747 12.2179 14.2505V17.0005Z" fill="white"/>
</svg>
