<svg width="21" height="21" viewBox="0 0 21 21" fill="none" xmlns="http://www.w3.org/2000/svg">
<path opacity="0.4" d="M13.9007 2.29199H6.91735C3.88402 2.29199 2.07568 4.10033 2.07568 7.13366V14.1087C2.07568 17.1503 3.88402 18.9587 6.91735 18.9587H13.8924C16.9257 18.9587 18.734 17.1503 18.734 14.117V7.13366C18.7423 4.10033 16.934 2.29199 13.9007 2.29199Z" fill="#006850"/>
<path d="M10.4091 13.8585C12.1948 13.8585 13.6424 12.4109 13.6424 10.6252C13.6424 8.83946 12.1948 7.39185 10.4091 7.39185C8.62339 7.39185 7.17578 8.83946 7.17578 10.6252C7.17578 12.4109 8.62339 13.8585 10.4091 13.8585Z" fill="#006850"/>
<path d="M14.5758 6.87516C14.3508 6.87516 14.1424 6.79183 13.9841 6.6335C13.9091 6.55016 13.8508 6.4585 13.8091 6.3585C13.7674 6.2585 13.7424 6.15016 13.7424 6.04183C13.7424 5.9335 13.7674 5.82516 13.8091 5.72516C13.8508 5.61683 13.9091 5.5335 13.9841 5.45016C14.1758 5.2585 14.4674 5.16683 14.7341 5.22516C14.7924 5.2335 14.8424 5.25016 14.8924 5.27516C14.9424 5.29183 14.9924 5.31683 15.0424 5.35016C15.0841 5.37516 15.1258 5.41683 15.1674 5.45016C15.2424 5.5335 15.3008 5.61683 15.3424 5.72516C15.3841 5.82516 15.4091 5.9335 15.4091 6.04183C15.4091 6.15016 15.3841 6.2585 15.3424 6.3585C15.3008 6.4585 15.2424 6.55016 15.1674 6.6335C15.0841 6.7085 14.9924 6.76683 14.8924 6.8085C14.7924 6.85016 14.6841 6.87516 14.5758 6.87516Z" fill="#006850"/>
</svg>
