<svg width="177" height="35" viewBox="0 0 177 35" fill="none" xmlns="http://www.w3.org/2000/svg">
<path d="M171.218 26.6694L165.154 26.8272C162.501 26.8905 159.854 26.9366 157.2 26.9846C155.761 27.0101 154.324 27.0356 152.882 27.0644C141.883 27.2864 130.695 27.4086 119.881 27.527L116.598 27.563C103.941 27.6994 91.3955 27.9338 79.7218 28.1702C68.694 28.3887 59.6981 28.5933 51.42 28.8036C51.3923 28.8046 51.3647 28.8117 51.3388 28.8188C49.6738 28.9109 48.3813 30.3018 48.4391 31.9573L48.4346 31.9621C48.493 33.6331 49.9233 34.952 51.6203 34.8928C51.6542 34.8916 51.6864 34.8858 51.7203 34.8846L54.543 34.7583C59.6016 34.5353 64.8266 34.3065 69.9654 34.0391C74.1953 33.8204 78.4333 33.6091 82.6683 33.4026C90.0937 33.0337 97.764 32.6531 105.312 32.2306C110.51 31.9364 115.716 31.6234 120.913 31.3122C127.872 30.8979 135.068 30.4614 142.149 30.0891C153.314 29.4985 162.551 29.0417 171.201 28.6516C171.23 28.6552 171.26 28.6573 171.284 28.6564C171.744 28.6404 172.084 28.1886 172.068 27.6336C172.049 27.0818 171.674 26.6519 171.22 26.6724L171.218 26.6694ZM51.6203 34.0938C50.7528 34.0189 49.6491 33.3838 49.1755 32.0593C49.1484 31.2824 49.4031 30.6244 49.8234 30.0138C49.4114 30.4557 49.1602 31.0401 49.1548 31.6823C49.1545 31.7178 49.1511 31.7535 49.1524 31.7904C49.1918 33.05 50.1774 34.0542 51.4147 34.1746C51.5277 34.1861 51.6421 34.1913 51.7577 34.1873C52.3681 34.166 52.9155 33.9339 53.3423 33.5625C52.7394 33.954 52.3216 34.0693 51.6203 34.0938ZM63.8493 33.6323C60.711 33.7789 57.577 33.9192 54.503 34.0544L53.5955 34.0938C54.2387 33.5126 54.6321 32.6686 54.5998 31.7422C54.5676 30.822 54.1181 30.012 53.4404 29.477C56.7153 29.395 60.1152 29.3133 63.7158 29.2323C64.8016 30.4105 64.8662 32.3914 63.8525 33.6337L63.8493 33.6323ZM67.3835 33.4626C66.7596 33.4936 66.1356 33.5231 65.5102 33.5542C66.4994 32.319 66.4358 30.3643 65.3688 29.1947C65.9871 29.1808 66.6116 29.1667 67.2439 29.1539C68.2845 30.3182 68.3451 32.2314 67.3836 33.4641L67.3835 33.4626ZM70.8496 33.289C70.5385 33.3045 70.2273 33.32 69.9161 33.3371C69.6265 33.3518 69.3369 33.3666 69.0473 33.3813C69.9814 32.1572 69.9173 30.2751 68.8985 29.1192C69.4968 29.106 70.1013 29.0942 70.712 29.0806C71.6967 30.2361 71.7563 32.0752 70.8482 33.2906L70.8496 33.289ZM169.563 28.0174C161.355 28.392 152.571 28.8284 142.103 29.3823C135.018 29.7594 127.821 30.1867 120.859 30.6057C115.817 30.9084 110.774 31.2095 105.728 31.4922C105.804 31.3244 105.866 31.1494 105.913 30.9703L149.218 28.5937L106.003 30.4933C106.088 29.7866 105.961 29.0518 105.626 28.4261C109.263 28.3717 112.926 28.3224 116.599 28.2821L119.882 28.2462C130.698 28.1323 141.884 28.0041 152.887 27.7865C154.329 27.7577 155.768 27.7322 157.205 27.7067C159.859 27.6603 162.51 27.6094 165.164 27.546L169.544 27.4316L169.565 28.0158L169.563 28.0174Z" fill="#006850"/>
<path d="M164.896 21.989C161.271 22.0681 157.958 21.1777 156.027 19.9255L158.286 15.4223C160.46 16.7294 162.952 17.397 165.368 17.3443C167.785 17.2916 168.976 16.5436 168.951 15.4009C168.889 12.5729 158.655 14.3621 158.51 7.74533C158.411 3.2041 162.243 0.141451 168.495 0.00501333C171.485 -0.0602278 174.217 0.512678 176.145 1.64309L174.067 6.11148C172.382 5.09456 170.317 4.59813 168.234 4.64358C165.757 4.69762 164.448 5.6287 164.473 6.77133C164.505 9.6602 174.769 7.78086 174.911 14.2774C175.009 18.7893 171.087 21.8539 164.896 21.989Z" fill="#011510"/>
<path d="M156.577 7.24905C156.483 2.94221 153.315 0.427239 147.889 0.456172C147.793 0.458258 147.696 0.458835 147.597 0.460989L95.267 1.60293L94.3806 6.5822L101.111 6.43533L98.0697 23.5089L104.267 23.3737L107.308 6.30011L114.006 6.15394L114.015 6.10128L116.334 6.04605L113.305 23.1765L130.866 22.7933L131.762 17.9819L120.275 18.2326L120.971 14.2078L130.735 13.9947L131.543 9.34118L121.809 9.55359L122.437 5.90362L137.371 5.55767L134.335 22.6713L140.532 22.536L141.563 16.6897L144.693 16.6214L148.075 22.3714L154.554 22.2301L150.687 15.7377C154.476 14.3406 156.665 11.2876 156.577 7.24905ZM146.091 11.7991L142.398 11.8797L143.573 5.43314L146.828 5.36211C148.956 5.31568 150.289 6.13354 150.33 7.98087C150.382 10.391 148.815 11.7397 146.091 11.7991Z" fill="#011510"/>
<path fill-rule="evenodd" clip-rule="evenodd" d="M92.6738 13.259C92.6738 20.0954 87.1318 25.6373 80.2954 25.6373C73.459 25.6373 67.9171 20.0954 67.9171 13.259C67.9171 6.42259 73.459 0.880615 80.2954 0.880615C87.1318 0.880615 92.6738 6.42259 92.6738 13.259ZM88.2148 19.748C88.4299 19.7913 88.5846 19.8857 88.6728 20.0265V20.025C88.7625 20.1658 88.7795 20.3452 88.7254 20.5588C88.6743 20.7646 88.5567 20.9936 88.3803 21.238C88.0167 21.7409 87.4349 22.2577 86.7449 22.6909C86.0548 23.1242 85.3368 23.4228 84.7256 23.5327C84.5601 23.5621 84.4084 23.5775 84.2692 23.5775C84.1578 23.5775 84.0557 23.5683 83.9628 23.5497C83.7477 23.5064 83.593 23.412 83.5048 23.2712C83.4151 23.1304 83.3981 22.9509 83.4522 22.7374C83.5033 22.5316 83.6209 22.3026 83.7973 22.0581C84.1609 21.5552 84.7427 21.0384 85.4327 20.6052C86.1228 20.172 86.8408 19.8733 87.452 19.7635C87.7506 19.7109 88.0059 19.7062 88.2148 19.748Z" fill="#006850"/>
<path fill-rule="evenodd" clip-rule="evenodd" d="M70.1561 4.91132C68.338 7.2075 67.2503 10.1071 67.2503 13.2574C67.2503 16.4077 68.3365 19.3074 70.1561 21.6035C67.8908 24.0792 64.6369 25.6342 61.0255 25.6342C54.2004 25.6342 48.6487 20.0825 48.6487 13.2574C48.6487 6.43231 54.2004 0.880615 61.0255 0.880615C64.6369 0.880615 67.8908 2.43565 70.1561 4.91132ZM57.4901 2.67047C57.7067 2.70451 57.8661 2.79115 57.9605 2.92732C58.0548 3.06348 58.0811 3.24296 58.0363 3.45804C57.993 3.66538 57.8877 3.90056 57.7222 4.15277C57.3802 4.67267 56.8247 5.21577 56.1548 5.67995C55.4848 6.14569 54.7823 6.47681 54.1758 6.61452C53.9777 6.65784 53.7982 6.68105 53.6373 6.68105C53.5584 6.68105 53.4841 6.67641 53.4145 6.66558C53.1979 6.63154 53.0385 6.54489 52.9441 6.40873C52.8497 6.27257 52.8234 6.09308 52.8683 5.87801C52.9116 5.67067 53.0169 5.43548 53.1824 5.18327C53.5244 4.66338 54.0798 4.12028 54.7498 3.65609C55.4198 3.19036 56.1223 2.85924 56.7288 2.72153C57.0243 2.65499 57.2796 2.63797 57.4901 2.67047Z" fill="#006850"/>
<path d="M40.8932 2.48198L47.2613 2.34302L43.2501 24.9547L36.8821 25.0936L38.4274 16.3079L29.7759 16.4967L28.2306 25.2824L21.8626 25.4214L25.8737 2.80973L32.2417 2.67077L30.7526 11.1344L39.4042 10.9456L40.8932 2.48198Z" fill="#011510"/>
<path d="M9.44274 26.1306C5.58339 26.2148 2.05623 25.2627 -1.21299e-08 23.9238L2.4048 19.1088C4.71993 20.5069 7.37339 21.2204 9.94681 21.1643C12.5202 21.1081 13.7893 20.3075 13.7627 19.0862C13.6967 16.0623 2.79809 17.974 2.6437 10.8977C2.53772 6.0404 6.61751 2.76714 13.2739 2.62189C16.4579 2.55241 19.3667 3.16465 21.4201 4.3741L19.2074 9.15244C17.4143 8.06537 15.2137 7.53486 12.9949 7.58328C10.3583 7.64081 8.96388 8.637 8.99052 9.85827C9.0255 12.9461 19.9544 10.9381 20.106 17.8848C20.2112 22.7098 16.0358 25.9851 9.44271 26.129L9.44274 26.1306Z" fill="#011510"/>
</svg>
