<svg width="241" height="240" viewBox="0 0 241 240" fill="none" xmlns="http://www.w3.org/2000/svg">
<path d="M212.5 64V192C212.5 200.84 205.34 208 196.5 208H20.5C11.66 208 4.5 200.84 4.5 192V64L8.5 56H208.5L212.5 64Z" fill="#E7E6FC"/>
<path d="M132.5 108C139.127 108 144.5 102.627 144.5 96C144.5 89.3726 139.127 84 132.5 84C125.873 84 120.5 89.3726 120.5 96C120.5 102.627 125.873 108 132.5 108Z" fill="#CBCBF4"/>
<path d="M84.5 108C91.1274 108 96.5 102.627 96.5 96C96.5 89.3726 91.1274 84 84.5 84C77.8726 84 72.5 89.3726 72.5 96C72.5 102.627 77.8726 108 84.5 108Z" fill="#CBCBF4"/>
<path d="M180.5 108C187.127 108 192.5 102.627 192.5 96C192.5 89.3726 187.127 84 180.5 84C173.873 84 168.5 89.3726 168.5 96C168.5 102.627 173.873 108 180.5 108Z" fill="#CBCBF4"/>
<path d="M180.5 148C187.127 148 192.5 142.627 192.5 136C192.5 129.373 187.127 124 180.5 124C173.873 124 168.5 129.373 168.5 136C168.5 142.627 173.873 148 180.5 148Z" fill="#CBCBF4"/>
<path d="M36.5 148C43.1274 148 48.5 142.627 48.5 136C48.5 129.373 43.1274 124 36.5 124C29.8726 124 24.5 129.373 24.5 136C24.5 142.627 29.8726 148 36.5 148Z" fill="#CBCBF4"/>
<path d="M84.5 148C91.1274 148 96.5 142.627 96.5 136C96.5 129.373 91.1274 124 84.5 124C77.8726 124 72.5 129.373 72.5 136C72.5 142.627 77.8726 148 84.5 148Z" fill="#CBCBF4"/>
<path d="M132.5 148C139.127 148 144.5 142.627 144.5 136C144.5 129.373 139.127 124 132.5 124C125.873 124 120.5 129.373 120.5 136C120.5 142.627 125.873 148 132.5 148Z" fill="#CBCBF4"/>
<path d="M132.5 188C139.127 188 144.5 182.627 144.5 176C144.5 169.373 139.127 164 132.5 164C125.873 164 120.5 169.373 120.5 176C120.5 182.627 125.873 188 132.5 188Z" fill="#CBCBF4"/>
<path d="M36.5 188C43.1274 188 48.5 182.627 48.5 176C48.5 169.373 43.1274 164 36.5 164C29.8726 164 24.5 169.373 24.5 176C24.5 182.627 29.8726 188 36.5 188Z" fill="#CBCBF4"/>
<path d="M84.5 188C91.1274 188 96.5 182.627 96.5 176C96.5 169.373 91.1274 164 84.5 164C77.8726 164 72.5 169.373 72.5 176C72.5 182.627 77.8726 188 84.5 188Z" fill="#CBCBF4"/>
<path d="M212.5 40V64H4.5V40C4.5 31.16 11.66 24 20.5 24H196.5C205.34 24 212.5 31.16 212.5 40Z" fill="#EA3957"/>
<path d="M44.5 12C44.5 7.58172 40.9183 4 36.5 4C32.0817 4 28.5 7.58172 28.5 12V36C28.5 40.4183 32.0817 44 36.5 44C40.9183 44 44.5 40.4183 44.5 36V12Z" fill="#1B254C"/>
<path d="M92.5 12C92.5 7.58172 88.9183 4 84.5 4C80.0817 4 76.5 7.58172 76.5 12V36C76.5 40.4183 80.0817 44 84.5 44C88.9183 44 92.5 40.4183 92.5 36V12Z" fill="#1B254C"/>
<path d="M140.5 12C140.5 7.58172 136.918 4 132.5 4C128.082 4 124.5 7.58172 124.5 12V36C124.5 40.4183 128.082 44 132.5 44C136.918 44 140.5 40.4183 140.5 36V12Z" fill="#1B254C"/>
<path d="M188.5 12C188.5 7.58172 184.918 4 180.5 4C176.082 4 172.5 7.58172 172.5 12V36C172.5 40.4183 176.082 44 180.5 44C184.918 44 188.5 40.4183 188.5 36V12Z" fill="#1B254C"/>
<path d="M188.5 236C215.01 236 236.5 214.51 236.5 188C236.5 161.49 215.01 140 188.5 140C161.99 140 140.5 161.49 140.5 188C140.5 214.51 161.99 236 188.5 236Z" fill="#59D379"/>
<path d="M208.5 184H192.5V168C192.5 166.939 192.079 165.922 191.328 165.172C190.578 164.421 189.561 164 188.5 164C187.439 164 186.422 164.421 185.672 165.172C184.921 165.922 184.5 166.939 184.5 168V184H168.5C167.439 184 166.422 184.421 165.672 185.172C164.921 185.922 164.5 186.939 164.5 188C164.5 189.061 164.921 190.078 165.672 190.828C166.422 191.579 167.439 192 168.5 192H184.5V208C184.5 209.061 184.921 210.078 185.672 210.828C186.422 211.579 187.439 212 188.5 212C189.561 212 190.578 211.579 191.328 210.828C192.079 210.078 192.5 209.061 192.5 208V192H208.5C209.561 192 210.578 191.579 211.328 190.828C212.079 190.078 212.5 189.061 212.5 188C212.5 186.939 212.079 185.922 211.328 185.172C210.578 184.421 209.561 184 208.5 184Z" fill="white"/>
</svg>
