<svg width="42" height="33" viewBox="0 0 42 33" fill="none" xmlns="http://www.w3.org/2000/svg">
<rect y="0.5" width="42" height="32" rx="8" fill="white"/>
<path d="M21.0001 15.9881C23.63 15.9881 25.762 13.6962 25.762 10.869C25.762 8.04188 23.63 5.75 21.0001 5.75C18.3702 5.75 16.2383 8.04188 16.2383 10.869C16.2383 13.6962 18.3702 15.9881 21.0001 15.9881Z" fill="#1C1F5E"/>
<path d="M22.0095 17.0117H19.9904C18.8061 17.0157 17.634 17.2705 16.5412 17.7615C15.4484 18.2525 14.4563 18.97 13.6214 19.8732C12.7866 20.7763 12.1254 21.8474 11.6756 23.0253C11.2259 24.2031 10.9963 25.4647 11 26.7379C11 26.8737 11.0502 27.0039 11.1395 27.0999C11.2288 27.1959 11.3499 27.2498 11.4762 27.2498H30.5237C30.6559 27.2369 30.7785 27.1705 30.8669 27.0641C30.9553 26.9576 31.0028 26.8191 30.9999 26.6765C30.9948 24.1149 30.046 21.6598 28.3611 19.8484C26.6761 18.0371 24.3923 17.0171 22.0095 17.0117Z" fill="#1C1F5E"/>
</svg>
