<svg width="43" height="33" viewBox="0 0 43 33" fill="none" xmlns="http://www.w3.org/2000/svg">
<path d="M21.5001 15.9881C24.13 15.9881 26.262 13.6962 26.262 10.869C26.262 8.04188 24.13 5.75 21.5001 5.75C18.8702 5.75 16.7383 8.04188 16.7383 10.869C16.7383 13.6962 18.8702 15.9881 21.5001 15.9881Z" fill="white"/>
<path d="M22.5095 17.0117H20.4904C19.3061 17.0157 18.134 17.2705 17.0412 17.7615C15.9484 18.2525 14.9563 18.97 14.1214 19.8732C13.2866 20.7763 12.6254 21.8474 12.1756 23.0253C11.7259 24.2031 11.4963 25.4647 11.5 26.7379C11.5 26.8737 11.5502 27.0039 11.6395 27.0999C11.7288 27.1959 11.8499 27.2498 11.9762 27.2498H31.0237C31.1559 27.2369 31.2785 27.1705 31.3669 27.0641C31.4553 26.9576 31.5028 26.8191 31.4999 26.6765C31.4948 24.1149 30.546 21.6598 28.8611 19.8484C27.1761 18.0371 24.8923 17.0171 22.5095 17.0117Z" fill="white"/>
</svg>
