<svg width="21" height="21" viewBox="0 0 21 21" fill="none" xmlns="http://www.w3.org/2000/svg">
<path d="M5.69078 12.9957C5.78845 12.187 6.12012 11.7342 6.74514 11.2701C7.63942 10.6415 8.75652 10.9971 8.75652 10.9971V8.88759C9.02809 8.88065 9.29978 8.89675 9.5684 8.93569V11.6504C9.5684 11.6504 8.45164 11.2948 7.55735 11.9237C6.93268 12.3876 6.60033 12.8407 6.503 13.6494C6.49995 14.0885 6.58236 14.6625 6.96184 15.1588C6.86802 15.1107 6.77238 15.0559 6.67494 14.9943C5.83898 14.433 5.68671 13.5908 5.69078 12.9957ZM14.1809 4.98717C13.5657 4.31305 13.3331 3.63242 13.249 3.1543H14.0229C14.0229 3.1543 13.8686 4.40796 14.9931 5.64081L15.0087 5.65739C14.7056 5.46674 14.4277 5.2417 14.1809 4.98717ZM17.909 6.89837V9.55846C17.909 9.55846 16.9214 9.51978 16.1906 9.33386C15.1702 9.07383 14.5143 8.67502 14.5143 8.67502C14.5143 8.67502 14.0612 8.39061 14.0246 8.37078V13.8639C14.0246 14.1697 13.9408 14.9336 13.6854 15.5706C13.3521 16.404 12.8376 16.9511 12.743 17.0629C12.743 17.0629 12.1173 17.8023 11.0134 18.3003C10.0184 18.7495 9.14482 18.7381 8.88369 18.7495C8.88369 18.7495 7.37355 18.8093 6.01465 17.9262C5.7208 17.7315 5.4465 17.5111 5.19531 17.2676L5.2021 17.2725C6.56133 18.1556 8.07114 18.0958 8.07114 18.0958C8.33261 18.0845 9.20621 18.0958 10.2009 17.6466C11.3037 17.1487 11.9304 16.4092 11.9304 16.4092C12.024 16.2974 12.5409 15.7504 12.8729 14.9167C13.1276 14.2799 13.212 13.5158 13.212 13.2099V7.71746C13.2486 7.73762 13.7014 8.02202 13.7014 8.02202C13.7014 8.02202 14.3576 8.42116 15.378 8.68087C16.1092 8.86679 17.0964 8.90547 17.0964 8.90547V6.82102C17.4342 6.89675 17.7221 6.91723 17.909 6.89837Z" fill="#006850" fill-opacity="0.07"/>
<path d="M17.0969 6.82102V8.90482C17.0969 8.90482 16.1096 8.86614 15.3785 8.68022C14.358 8.42019 13.7018 8.02137 13.7018 8.02137C13.7018 8.02137 13.2491 7.73696 13.2125 7.71681V13.2106C13.2125 13.5164 13.1287 14.2806 12.8733 14.9173C12.54 15.751 12.0255 16.2981 11.9309 16.4099C11.9309 16.4099 11.3048 17.1493 10.2013 17.6473C9.20665 18.0965 8.33305 18.0851 8.07158 18.0965C8.07158 18.0965 6.56177 18.1563 5.20253 17.2732L5.19575 17.2683C5.05225 17.1293 4.91716 16.9826 4.79117 16.8288C4.35742 16.3 4.09154 15.6746 4.02473 15.4962C4.02462 15.4954 4.02462 15.4947 4.02473 15.4939C3.91723 15.1838 3.69137 14.4392 3.72223 13.7179C3.77683 12.4454 4.22448 11.6644 4.34284 11.4687C4.6563 10.9351 5.06399 10.4577 5.54777 10.0577C5.97468 9.71257 6.45856 9.43795 6.97958 9.24513C7.54281 9.01873 8.14594 8.89738 8.75662 8.88759V10.9971C8.75662 10.9971 7.63952 10.6428 6.74558 11.2701C6.12056 11.7342 5.78889 12.187 5.69122 12.9957C5.68715 13.5908 5.83942 14.433 6.6747 14.9947C6.77214 15.0564 6.86778 15.1113 6.9616 15.1591C7.10753 15.3488 7.28513 15.5141 7.48725 15.6483C8.3032 16.1648 8.98689 16.2009 9.86117 15.8654C10.4441 15.6412 10.883 15.1357 11.0864 14.5757C11.2143 14.226 11.2126 13.8739 11.2126 13.5099V3.1543H13.2474C13.3315 3.63242 13.5641 4.31305 14.1793 4.98717C14.4261 5.2417 14.704 5.46674 15.0071 5.65739C15.0967 5.75003 15.5545 6.208 16.1422 6.48916C16.4461 6.63449 16.7664 6.74584 17.0969 6.82102V6.82102Z" fill="#006850"/>
<path d="M3.21484 14.8484V14.85L3.26533 14.9869C3.25953 14.9709 3.24077 14.9225 3.21484 14.8484Z" fill="#006850"/>
<path d="M6.97957 9.24515C6.45855 9.43797 5.97467 9.71259 5.54776 10.0577C5.06383 10.4586 4.65624 10.937 4.34317 11.4716C4.22481 11.6667 3.77716 12.4484 3.72256 13.7209C3.6917 14.4421 3.91756 15.1868 4.02507 15.4969C4.02495 15.4976 4.02495 15.4984 4.02507 15.4991C4.09289 15.676 4.35775 16.3013 4.7915 16.8318C4.91749 16.9856 5.05258 17.1323 5.19608 17.2712C4.73629 16.9665 4.32622 16.598 3.97928 16.1778C3.54927 15.6535 3.28407 15.0347 3.21488 14.852C3.2148 14.8507 3.2148 14.8494 3.21488 14.8481V14.8458C3.10704 14.5361 2.8805 13.7911 2.91204 13.0689C2.96664 11.7963 3.41429 11.0153 3.53265 10.8196C3.84562 10.2849 4.25323 9.80652 4.73724 9.40571C5.16406 9.06045 5.64797 8.78582 6.16905 8.59313C6.49407 8.46388 6.83266 8.36852 7.17898 8.30872C7.70089 8.2214 8.23393 8.21383 8.75831 8.28629V8.88761C8.14705 8.89719 7.54333 9.01854 6.97957 9.24515Z" fill="#006850"/>
<path d="M13.249 3.15421H11.2143V13.5102C11.2143 13.8742 11.2143 14.2252 11.0881 14.5759C10.8826 15.1357 10.4455 15.6411 9.86283 15.8654C8.98822 16.2021 8.30453 16.1647 7.48892 15.6482C7.28645 15.5146 7.10839 15.3499 6.96191 15.1607C7.65679 15.5159 8.27876 15.5098 9.04926 15.2133C9.63155 14.9891 10.0694 14.4836 10.2742 13.9236C10.4024 13.5739 10.4007 13.2218 10.4007 12.8581V2.50024H13.2104C13.2104 2.50024 13.1788 2.75767 13.249 3.15421ZM17.0968 6.24465V6.82093C16.767 6.74564 16.4472 6.63429 16.1439 6.48907C15.5562 6.20792 15.0983 5.74994 15.0088 5.65731C15.1127 5.72268 15.2205 5.78216 15.3316 5.83543C16.0462 6.17737 16.7499 6.27943 17.0968 6.24465Z" fill="#006850"/>
</svg>
