<svg width="13" height="13" viewBox="0 0 13 13" fill="none" xmlns="http://www.w3.org/2000/svg">
<path d="M8.91688 7.95446L7.24691 6.69962V4.14348C7.24691 3.88646 7.03955 3.67871 6.78302 3.67871C6.52649 3.67871 6.31914 3.88646 6.31914 4.14348V6.93202C6.31914 7.07841 6.3878 7.21646 6.50469 7.30384L8.36019 8.69811C8.44368 8.76085 8.54112 8.79106 8.63806 8.79106C8.77954 8.79106 8.9187 8.72738 9.00963 8.60469C9.16368 8.3997 9.12192 8.1083 8.91688 7.95446Z" fill="#006850"/>
<path d="M6.78339 0.895264C3.48105 0.895264 0.794739 3.58666 0.794739 6.89526C0.794739 10.2039 3.48105 12.8953 6.78339 12.8953C10.0857 12.8953 12.772 10.2039 12.772 6.89526C12.772 3.58666 10.0857 0.895264 6.78339 0.895264ZM6.78339 11.9658C3.99317 11.9658 1.72249 9.69077 1.72249 6.89526C1.72249 4.09976 3.99317 1.82477 6.78339 1.82477C9.57408 1.82477 11.8443 4.09976 11.8443 6.89526C11.8443 9.69077 9.57361 11.9658 6.78339 11.9658Z" fill="#006850"/>
</svg>
