<svg width="51" height="51" viewBox="0 0 51 51" fill="none" xmlns="http://www.w3.org/2000/svg">
<circle cx="25.5" cy="25.5" r="25" stroke="#006850"/>
<path d="M29.8141 23.1007C29.8141 23.5015 29.4809 23.8498 29.0409 23.8498C28.6008 23.8498 28.2676 23.5015 28.2676 23.1007C28.2676 22.6998 28.6008 22.3516 29.0409 22.3516C29.4809 22.3516 29.8141 22.6998 29.8141 23.1007Z" fill="#006850" stroke="#006850" stroke-width="2"/>
<path d="M27.6707 34.2394C27.6736 34.2742 27.6762 34.309 27.6785 34.3438H19.4564C18.5389 34.343 17.6424 34.0815 17.1751 33.6324L16.5037 34.3311L17.1751 33.6324C16.7466 33.2206 16.5498 32.5157 16.5431 31.6244L16.8701 27.7987C17.0579 27.7258 17.2491 27.6607 17.443 27.6035L17.443 27.6035L17.4508 27.6012C18.5878 27.2557 19.7926 27.1622 20.9737 27.3282C22.1548 27.4942 23.279 27.9151 24.2621 28.5569C25.2451 29.1985 26.0604 30.0437 26.6494 31.0263C27.2384 32.0088 27.5865 33.1042 27.67 34.2304L27.67 34.2304L27.6707 34.2394Z" fill="#006850" stroke="#006850" stroke-width="2"/>
<path d="M30.4951 33.8184C30.4448 32.3407 30.0161 30.9045 29.2602 29.6082C29.6331 29.5807 30.0089 29.5749 30.385 29.5911L30.3853 29.5911C31.1336 29.6231 31.8735 29.7442 32.5832 29.9504L32.5902 29.9524L32.5973 29.9544C32.8302 30.0183 33.0586 30.0927 33.2815 30.1771L33.6496 32.4222C33.5959 33.0584 33.3002 33.6369 32.7364 34.0791C32.6346 34.1589 32.3365 34.2515 31.6705 34.2275C31.3712 34.2168 31.0559 34.1864 30.7225 34.1524C30.6962 34.1497 30.6696 34.147 30.6428 34.1442C30.5963 34.1395 30.5492 34.1347 30.5017 34.1299C30.5015 34.0258 30.4993 33.9222 30.4951 33.8184Z" fill="#006850" stroke="#006850" stroke-width="2"/>
<rect x="15.4902" y="16.1816" width="19.1618" height="19.1618" rx="5" stroke="#006850" stroke-width="2"/>
</svg>
